<?xml version="1.0" encoding="utf-8"?>
<!-- Generator: Adobe Illustrator 24.3.0, SVG Export Plug-In . SVG Version: 6.00 Build 0)  -->
<svg version="1.1" id="Layer_1" xmlns="http://www.w3.org/2000/svg" xmlns:xlink="http://www.w3.org/1999/xlink" x="0px" y="0px"
	 viewBox="0 0 841.89 595.276" style="enable-background:new 0 0 841.89 595.276;" xml:space="preserve">
<style type="text/css">
	.st0{fill:#CC9A30;}
</style>
<g id="LOGO_00000157992006354556167560000001622798985793991102_">
	<g>
		<path class="st0" d="M436.396,307.582h0.482c0.304,0,0.551-0.247,0.551-0.551v-3.204c0-0.304-0.247-0.551-0.551-0.551h-0.482
			V307.582z"/>
		<polygon class="st0" points="420.961,227.164 317.678,227.164 317.678,231.986 420.961,231.986 421.215,231.986 524.499,231.986 
			524.499,227.164 421.215,227.164 		"/>
		<path class="st0" d="M404.196,303.276h-0.477c-0.304,0-0.551,0.247-0.551,0.551v3.204c0,0.303,0.247,0.551,0.551,0.551h0.477
			V303.276z"/>
		<path class="st0" d="M418.027,174.925c0,1.194,0.658,2.233,1.63,2.779l-101.979,45.572v1.959h103.282h0.254h103.284v-1.959
			l-101.842-45.511c1.036-0.526,1.747-1.6,1.747-2.841c0-1.281-0.757-2.382-1.846-2.889c0.577-0.418,0.956-1.092,0.956-1.859
			c0-0.837-0.452-1.563-1.122-1.964c0.25-0.28,0.406-0.645,0.406-1.049c0-0.571-0.304-1.066-0.756-1.345
			c0.014-0.112,0.022-0.228,0.022-0.349c0-0.874-0.38-1.583-0.849-1.583c-0.468,0-0.848,0.709-0.848,1.583
			c0,0.121,0.008,0.237,0.022,0.349c-0.452,0.279-0.756,0.774-0.756,1.345c0,0.404,0.156,0.77,0.406,1.049
			c-0.67,0.402-1.122,1.128-1.122,1.964c0,0.767,0.379,1.441,0.956,1.859C418.784,172.543,418.027,173.644,418.027,174.925z"/>
		<path class="st0" d="M659.986,181.197c-0.265-0.731-0.716-1.824-1.51-3.2c-0.195-0.353-2.241-1.749-4.41-2.86
			c-2.161-1.143-4.413-2.042-4.755-2.382c-0.219-0.219,1.496,0.103,3.214,0.562c1.717,0.443,3.429,1.047,3.194,0.763
			c-1.42-1.7-3.287-3.561-5.665-5.42c-0.381-0.301-3.264-0.873-6.099-1.16c-2.845-0.31-5.638-0.382-6.074-0.61
			c-0.456-0.235,1.449-0.655,3.406-0.971c1.952-0.325,3.961-0.535,3.451-0.831c-0.75-0.437-1.532-0.865-2.348-1.287
			c-0.224-0.117-1.2-0.231-2.519-0.296c-1.318-0.067-2.971-0.082-4.559-0.045c-3.183,0.062-6.1,0.337-5.842,0.085
			c1.02-0.984,3.119-1.499,4.874-1.74c1.755-0.246,3.155-0.242,2.725-0.416c-3.824-1.516-8.162-2.802-12.992-3.695
			c-0.784-0.147-2.637,0.508-4.446,1.228c-1.817,0.711-3.588,1.485-4.396,1.416c-0.328-0.028,0.31-0.921,0.967-1.806
			c0.656-0.885,1.331-1.762,0.989-1.793c-3.354-0.317-6.811-0.599-10.223-0.308c-2.06,0.167-5.002,1.623-7.285,3.065
			c-0.576,0.36-1.097,0.71-1.621,1.048c-0.49,0.333-0.908,0.64-1.253,0.891c-0.689,0.502-1.089,0.78-1.083,0.632
			c0.076-1.577,1.319-2.95,2.614-3.845c1.198-0.879,2.153-1.305,1.439-1.216c-0.649,0.085-1.224,0.166-1.948,0.28
			c-0.662,0.11-1.277,0.23-1.881,0.354c-1.203,0.253-2.338,0.532-3.433,0.827c-2.188,0.59-4.214,1.242-6.1,1.941
			c-0.523,0.193-1.897,1.346-3.194,2.544c-1.305,1.195-2.525,2.434-2.976,2.664c-0.559,0.285-0.367-0.459-0.142-1.208
			c0.221-0.747,0.474-1.499-0.055-1.231c-3.114,1.587-5.681,3.303-7.674,5.057c-0.959,0.84-1.778,1.693-2.459,2.531
			c0.752-1.232,1.754-2.571,3.118-3.984c1.52-1.577,3.5-3.279,6.13-5.176c0.264-0.187-1.307-0.308-2.923-0.268
			c-1.612,0.026-3.266,0.254-3.011-0.002c0.135-0.137,0.75-0.388,1.606-0.642c0.858-0.252,1.953-0.495,3.043-0.678
			c2.186-0.377,4.346-0.489,4.643-0.676c0.755-0.482,1.525-0.959,2.3-1.429c0.32-0.19-1.413-0.476-3.204-0.631
			c-1.784-0.166-3.625-0.176-3.314-0.43c0.185-0.154,2.532-0.51,4.835-0.613c2.306-0.127,4.567-0.048,4.756-0.159l0.714-0.419
			l3.222-1.905c0.357-0.211-1.106-0.707-2.621-1.133c-1.511-0.435-3.079-0.792-2.743-1.038c0.275-0.206,2.459-0.27,4.592-0.186
			c2.137,0.067,4.214,0.276,4.478,0.113c1.616-0.997,3.102-1.95,4.461-2.851c0.302-0.2-0.388-0.649-1.104-1.081
			c-0.716-0.437-1.456-0.852-1.176-1.062c0.228-0.172,1.48-0.124,2.703-0.028c1.227,0.09,2.418,0.234,2.628,0.085
			c0.962-0.677,1.84-1.316,2.636-1.906c0.248-0.185-0.562-0.601-1.415-0.984c-0.849-0.384-1.739-0.739-1.522-0.925
			c0.346-0.3,1.789-0.415,3.185-0.433c1.402-0.03,2.736,0.051,3.003-0.156c1.541-1.217,2.402-1.947,2.399-1.953
			c-0.002,0.007-0.862-0.693-2.814-1.398c-0.248-0.092-1.663,0.448-3.012,1.072c-1.357,0.62-2.669,1.308-2.976,1.252
			c-0.195-0.035,0.621-0.823,1.484-1.582c0.857-0.764,1.77-1.498,1.543-1.543c-1.376-0.265-3-0.449-4.855-0.465
			c-0.296-0.004-1.688,1.253-2.975,2.562c-1.297,1.303-2.5,2.652-2.802,2.687c-0.317,0.033,0.263-1.257,0.899-2.534
			c0.631-1.277,1.321-2.544,0.962-2.505c-0.526,0.059-1.065,0.133-1.616,0.221c-0.308,0.048-1.827,1.687-3.144,3.283
			c-1.329,1.591-2.472,3.125-2.493,2.801c-0.082-1.271,0.565-2.658,1.195-3.693c0.63-1.037,1.227-1.726,0.951-1.655
			c-2.437,0.634-5.052,1.563-7.785,2.915c-0.443,0.22-0.942,1.553-1.385,2.895c-0.447,1.34-0.838,2.688-1.259,2.955
			c-0.17,0.108-0.386-0.873-0.582-1.861c-0.197-0.988-0.374-1.982-0.557-1.867c-1.788,1.126-3.658,2.285-5.2,3.853
			c-0.937,0.943-1.54,3.225-1.791,5.169c-0.266,1.952-0.212,3.554-0.396,3.328c-0.987-1.217-1.156-2.708-1.102-3.816
			c0.051-1.104,0.287-1.81-0.031-1.468c-2.231,2.425-3.963,4.97-5.16,7.478c-0.168,0.346-0.147,1.708,0.008,3.017
			c0.14,1.317,0.421,2.565,0.351,2.884c-0.087,0.399-0.56-0.106-1.008-0.652c-0.45-0.542-0.872-1.119-0.972-0.717
			c-0.147,0.619-0.257,1.223-0.338,1.808c-0.629-1.394-1.447-2.901-2.512-4.484c-2.112-3.148-5.2-6.576-9.462-9.808
			c-0.427-0.319,0.468,1.594,1.199,3.526c0.747,1.932,1.317,3.867,0.948,3.526c-0.384-0.353-1.767-2.965-3.474-5.48
			c-1.679-2.528-3.642-4.939-4.129-5.219c-1.237-0.727-2.499-1.403-3.781-2.031c-0.529-0.253,0.84,1.646,2.045,3.598
			c1.223,1.95,2.271,3.941,1.797,3.661c-0.277-0.164-2.112-2.578-4.222-4.871c-2.081-2.301-4.415-4.466-4.736-4.585
			c-0.4-0.147-0.8-0.287-1.2-0.426c-1.876-0.645-3.709-1.161-5.487-1.566c-0.613-0.137,0.7,1.343,1.911,2.871
			c1.219,1.523,2.338,3.091,1.794,2.945c-0.442-0.116-2.572-1.923-4.883-3.596c-2.295-1.683-4.771-3.215-5.234-3.254
			c-2.815-0.267-5.419-0.266-7.784-0.083c-0.524,0.044,0.165,0.752,0.833,1.479c0.671,0.726,1.32,1.466,0.859,1.507
			c-0.382,0.034-1.884-0.621-3.438-1.201c-1.547-0.591-3.152-1.101-3.512-1.02c-1.635,0.359-3.094,0.794-4.377,1.267
			c-0.4,0.15,0.642,0.666,1.647,1.218c1.013,0.551,1.99,1.141,1.656,1.259c-0.539,0.196-2.365-0.055-4.199-0.179
			c-1.827-0.138-3.663-0.131-4.035,0.111c-2.141,1.379-2.965,2.398-2.972,2.388c-0.005,0.01,1.228,0.365,3.463,0.951
			c0.28,0.075,1.899-0.521,3.616-0.979c1.711-0.468,3.501-0.808,3.847-0.672c0.223,0.083-1.009,0.622-2.171,1.222
			c-1.172,0.593-2.262,1.245-2.017,1.312c1.475,0.402,3.174,0.869,5.087,1.418c0.303,0.085,2.134-0.71,4.096-1.366
			c1.947-0.674,4-1.215,4.337-1.082c0.356,0.135-1.005,0.924-2.282,1.772c-1.288,0.84-2.486,1.735-2.119,1.843l1.667,0.492
			c0.312,0.089,2.538-0.672,4.762-1.233c2.212-0.576,4.389-0.969,4.179-0.708c-0.819,1.019-2.312,1.696-3.503,2.184
			c-1.196,0.483-2.1,0.761-1.815,0.848c2.544,0.776,5.316,1.645,8.323,2.638c0.487,0.158,1.822-0.409,3.213-0.926
			c1.385-0.52,2.827-0.989,3.362-0.782c0.215,0.082-0.492,0.82-1.181,1.572c-0.688,0.748-1.358,1.505-1.151,1.58
			c2.053,0.721,4.06,1.646,6.155,2.293c1.258,0.384,3.569,0.011,5.6-0.273c2.027-0.302,3.75-0.542,3.56-0.323
			c-1.024,1.187-2.479,1.653-3.56,1.915c-1.079,0.257-1.803,0.283-1.387,0.468c2.943,1.321,5.519,2.629,7.781,3.892
			c0.313,0.17,1.602,0.221,2.908,0.359c1.305,0.123,2.623,0.342,2.917,0.549c0.356,0.256-0.314,0.471-0.979,0.701
			c-0.668,0.229-1.327,0.463-1.004,0.668c1.935,1.22,3.572,2.38,4.947,3.429c-2.427-1.415-5.405-3.021-8.676-4.01
			c-4.265-1.288-11.702-3.242-16.522-3.026c-0.482,0.021,3.223,1.918,3.432,2.065c0.21,0.148,4.469,2.68,3.067,2.291
			c-1.401-0.389-5.082-1.797-7.197-2.533c-1.056-0.367-3.823-1.001-4.864-1.237c-1.042-0.236-2.465-0.409-3.014-0.375
			c-1.427,0.088-2.055,0.306-3.187,0.49c-0.571,0.092-1.009,0.212-1.477,0.345c-0.467,0.133-1.076,0.198-1.385,0.397
			c-0.308,0.199,0.929,0.37,1.229,0.421c0.301,0.051,1.244,0.218,1.613,0.273c0.368,0.055,0.809,0.137,1.078,0.184
			c0.269,0.048,0.919,0.197,0.999,0.223c0.639,0.208,4.762,1.055,4.377,1.67c-0.117,0.186-1.863-0.275-2.565-0.356
			c-0.352-0.041-1.776-0.25-2.408-0.292c-0.328-0.021-1.062-0.066-1.464-0.084c-0.402-0.016-1.11-0.024-1.487-0.044
			c-1.504-0.079-4.218,0.158-5.366,0.222s-2.536,0.309-2.909,0.421c-0.937,0.282-1.302,0.52-1.747,0.76
			c-2.082,1.124-4.387,2.091-6.015,3.469c-0.563,0.477,3.422,0.328,3.704,0.353c0.282,0.025,4.138-0.003,3.557,0.647
			c-0.24,0.268-1.573,0.432-2.371,0.512c-0.799,0.08-3.397,0.8-4.167,0.857c-1.541,0.114-5.057,1.131-5.651,1.516
			c-1.84,1.19-1.937,1.938-3.092,3.033c-0.577,0.547-0.718,0.896-1.159,1.405c-0.442,0.509-0.74,0.959-1.088,1.497
			c-0.154,0.237,0.23,0.295,0.334,0.323s0.07,0.016,0.14,0.013c0.068-0.004,0.101-0.025,0.172-0.036
			c0.073-0.01,0.105-0.029,0.195-0.039c0.091-0.01,0.055-0.029,0.213-0.02c0.158,0.009,0.363,0.004,0.63,0.021
			c0.268,0.017,1.687-0.204,1.535,0.434c-0.064,0.266-0.678,0.468-0.935,0.624c-0.025,0.015-0.146,0.07-0.2,0.101
			c-0.054,0.03-0.199,0.125-0.245,0.16c-0.045,0.035-0.045,0.034-0.075,0.054c-0.032,0.021-0.018,0.011-0.057,0.032
			c-0.038,0.022-0.037,0.025-0.106,0.059c-0.068,0.035-0.084,0.055-0.224,0.119c-0.139,0.064-0.707,0.389-0.873,0.434
			c-0.664,0.176-2.36,1.044-2.593,1.378c-1.054,1.509-1.735,2.682-2.346,4.171c-0.19,0.465,1.83-0.273,1.992-0.331
			c0.163-0.055,2.248-0.869,1.9-0.184c-0.567,1.116-1.976,1.943-3.051,2.896c-0.536,0.474-1.832,1.764-2.313,2.211
			c-0.481,0.447-1.099,1.411-1.18,1.624c-0.471,1.237-0.519,2.757-0.566,3.671c-0.048,0.915,0.101,0.748,0.078,1.485
			c0.435-0.515,0.369-0.45,0.924-1.043c0.554-0.591,1.568-1.451,2.404-2.229c0.106-0.098,0.612-0.939,0.839-1.426
			c0.225-0.488,1.21-1.944,1.498-2.453c0.577-1.015,1.491-2.807,2.258-3.186c0.765-0.377-0.547,2.124-0.651,2.283
			c-0.104,0.159-0.999,2.529-0.721,2.419c1.682-0.672,3.166-1.774,4.902-2.762c0.138-0.079,0.473-0.786,0.646-1.307
			c0.173-0.52,0.775-1.814,1.003-2.53c0.042-0.134,0.21-0.572,0.25-0.695c0.039-0.123,0.052-0.138,0.074-0.214
			c0.022-0.077,0.018-0.085,0.03-0.159c0.014-0.074,0.081-0.237,0.11-0.304c0.116-0.273,0.402-0.976,0.491-1.145
			c0.178-0.338,0.421-1.317,0.737-1.215c0.658,0.209-0.006,2.175-0.047,2.803c-0.007,0.114-0.085,0.82-0.098,1.001
			c-0.013,0.183,0.073,0.275,0.065,0.43c-0.008,0.154,0.015,0.306-0.021,0.461c-0.038,0.155-0.047,0.825,0.133,0.823
			c0.18,0,0.257-0.194,0.361-0.238c0.104-0.044,0.13-0.105,0.186-0.14c0.056-0.034,0.064-0.055,0.094-0.074
			c0.031-0.02,0.02-0.006,0.039-0.015c0.018-0.007,0.014,0.006,0.031-0.001c0.016-0.006-0.009,0.018,0.019-0.004
			s0,0.012,0.054-0.038c0.054-0.051,0.07-0.009,0.179-0.127c0.108-0.118,0.176,0.005,0.375-0.293
			c0.598-0.892,1.706-3.095,1.857-4.057c0.151-0.962,1.757-3.658,2.017-3.523c1.026,0.531-0.27,3.05-0.341,3.559
			c-0.069,0.508-0.848,2.224-0.553,2.064c2.62-1.412,5.017-2.825,7.856-4.497c0.461-0.271,1.357-2.046,1.781-2.934
			c0.422-0.887,1.333-2.678,2.42-3.076c0.439-0.161,0.207,1.656,0.084,1.895c-0.124,0.238-0.171,1.953,0.112,1.885
			c1.386-0.342,2.409-1.029,3.81-1.52c1.019-0.358,2.568-0.978,3.574-1.376c1.006-0.4,1.937-1.04,2.684-1.589
			c0.746-0.55,2.532-1.659,2.846-2.085c0.627-0.85,3.359-2.568,3.517-2.383c0.863,0.996-1.569,2.857-1.914,3.276
			c-0.344,0.42-1.84,1.401-1.305,1.344c3.82-0.406,7.567-0.831,11.75-1.008c0.578-0.024,2.515-0.747,3.411-1.096
			c0.896-0.348,2.582-0.958,3.53-0.902c0.947,0.055-0.1,0.95-0.384,1.033c-0.284,0.082-0.74,1.058-0.463,1.069
			c0.075,0.003,0.154,0.006,0.234,0.011c-0.391,0.135-0.775,0.283-1.145,0.459c-1.93,0.915-4.035,2.261-5.754,3.632
			c-0.429,0.341-0.907,0.79-1.297,1.134c-0.39,0.343-0.922,0.808-1.217,1.118c-0.805,0.847-1.81,1.788-2.38,2.586
			c-0.227,0.319,3.136-0.893,3.558-0.989c0.213-0.047,2.313-0.714,2.477-0.668c0.163,0.046,1.645-0.566,0.858,0.038
			c-0.787,0.605-4.049,2.185-5.341,2.849c-1.294,0.664-4.389,2.85-4.864,3.502c-1.208,1.663-1.351,2.24-2.003,3.536
			c-0.269,0.533,3.328-1.784,3.373-1.75c0.044,0.033,4-2.296,3.374-1.475c-0.627,0.821-3.274,2.697-4.407,3.638
			s-3.571,3.165-4.07,4.031c-0.501,0.867-0.355,0.902-0.453,1.197c-0.611,1.845-0.889,3.441-1.117,5.182
			c-0.078,0.602,2.514-1.755,2.59-1.821c0.076-0.064,2.957-2.401,2.667-1.461c-0.291,0.94-2.274,3.323-3.043,4.303
			c-0.767,0.981-2.576,4.354-2.575,4.901c0.006,3.314,0.438,5.099,1.128,7.884c0.154,0.621,1.177-0.786,1.279-0.931
			c0.103-0.146,1.101-1.645,1.28-0.903c0.179,0.742-0.257,2.56-0.443,3.371c-0.185,0.81-0.354,3.041-0.173,3.432
			c0.82,1.769,1.413,2.672,2.397,4.038c0.307,0.426,0.752-1.572,0.799-1.676c0.047-0.104,0.423-2.229,0.848-1.65
			c0.422,0.58,0.781,2.933,0.828,3.722c0.047,0.79,0.623,3.411,0.777,3.539c0.891,0.742,1.971,2.307,2.648,2.099
			c0.677-0.209,0.475-2.161,0.701-3.183c0.029-0.13-1.244-2.402-1.667-2.942c-0.424-0.541-1.661-2.683-1.565-3.255
			c0.095-0.571,1.634,1.604,1.694,1.673c0.059,0.071,1.648,1.817,1.666,1.526c0.114-1.769,0.243-2.905,0.052-4.993
			c-0.031-0.332-1.794-2.594-2.299-3.313c-0.503-0.719-1.952-3.001-1.877-3.731c0.074-0.729,1.982,1.721,2.083,1.797
			c0.101,0.076,2.027,2.182,2.141,1.649c0.115-0.533,0.206-0.804,0.107-1.581c-0.098-0.777-1.555-3.305-1.941-3.911
			c-0.384-0.606-1.514-3.762-1.269-3.719c0.968,0.171,2.118,2.368,2.471,2.798c0.353,0.431,1.059,1.913,1.121,1.637
			c0.556-2.437,1.019-4.745,1.733-7.409c0.115-0.43-0.857-2.168-1.163-2.757c-0.306-0.59-1.262-2.452-0.825-2.925
			c0.438-0.474,2.707,2.37,2.93,2.012c1.076-1.733,1.4-3.639,2.036-5.553c0.383-1.151-0.266-4.073-0.52-4.827
			c-0.254-0.753-0.489-3.396-0.406-3.294c0.885,1.086,1.643,5.267,2.328,4.459c1.213-1.426,1.101-2.433,2.086-3.757
			c0.182-0.246,0.323-0.544,0.522-0.849c0.199-0.304,0.285-0.442,0.53-0.85c0.244-0.407,0.649-0.885,1.011-1.389
			c0.363-0.503,0.413-1.622,0.535-2.265c0.121-0.644,0.36-1.854,0.779-2.256c0.419-0.402,0.574,0.792,0.594,0.965
			c0.02,0.174,0.306,1.127,0.513,0.966c0.605-0.476,1.147-1.008,1.712-1.403c0.564-0.394,1.231-0.788,1.775-1.018
			c1.092-0.461,2.637-0.956,3.561-1.228c0.81-0.238,1.505-0.482,2.039-0.682c-0.294,5.402-0.675,10.804-1.129,16.2
			c-0.001,0.013-0.001,0.025-0.002,0.038c-0.007-0.521-0.001-0.861-0.01-0.859c0.008,0.011-0.608,0.22-1.331,1.02
			c-0.353,0.401-0.73,0.973-0.933,1.753c-0.209,0.769-0.194,1.735,0.096,2.623c-0.142-0.209-0.281-0.412-0.413-0.599
			c-0.403-0.57-0.728-0.989-0.733-0.985c0.007,0.004-0.402,0.343-0.723,1.082c-0.16,0.367-0.291,0.836-0.305,1.382
			c-0.008,0.295,0.022,0.615,0.094,0.941c-0.162,0.144-0.484,0.468-0.773,1.044c-0.126,0.256-0.238,0.569-0.317,0.919
			c-0.19-0.542-0.29-0.894-0.294-0.893c0.011-0.001-0.526,0.487-0.9,1.606c-0.379,1.1-0.504,2.817,0.105,4.586
			c0.173,0.504,0.397,1.018,0.648,1.525c-0.012,0.064-0.025,0.124-0.037,0.191c-0.035,0.211-0.063,0.446-0.085,0.691
			c-0.365-0.552-0.745-1.034-1.071-1.448c-0.463-0.586-0.81-1.023-0.817-1.021c0.01,0-0.385,0.41-0.622,1.254
			c-0.241,0.828-0.271,2.12,0.402,3.362c0.228,0.426,0.529,0.851,0.871,1.246c0.01,0.719,0.167,1.612,0.599,2.519
			c-0.254-0.195-0.49-0.384-0.705-0.562c-0.831-0.682-1.367-1.194-1.371-1.187c0.011-0.005-0.17,0.727,0.116,1.937
			c0.147,0.598,0.417,1.308,0.879,2.029c0.461,0.718,1.113,1.445,1.965,2.043c1.126,0.803,2.611,1.427,4.05,1.647
			c0.67,0.111,1.317,0.128,1.903,0.088c-0.357,3.285-0.731,6.573-1.134,9.858c-0.062,0.496,0.098,0.903,0.356,0.906l0.7,0.001
			c-0.457,3.904-0.949,7.805-1.468,11.705c-0.067,0.499,0.104,0.905,0.382,0.906l0.748,0.007c-0.498,3.901-1.028,7.802-1.587,11.699
			c-0.071,0.499,0.11,0.907,0.407,0.909l0.8,0.009c-0.537,3.9-1.107,7.799-1.703,11.694c-0.076,0.499,0.115,0.908,0.433,0.911
			l0.849,0.012c-0.576,3.9-1.177,7.796-1.808,11.695c-0.081,0.496,0.126,0.902,0.46,0.909l0.899,0.015
			c-0.61,3.899-1.246,7.795-1.909,11.69c-0.083,0.5,0.134,0.907,0.486,0.915l0.949,0.015c-0.639,3.899-1.305,7.796-1.998,11.693
			c-0.086,0.498,0.141,0.907,0.513,0.914l1,0.018c-0.67,3.899-1.364,7.795-2.077,11.696c-0.091,0.497,0.149,0.906,0.54,0.913
			l1.049,0.019c-0.692,3.905-1.406,7.805-2.133,11.717c-0.094,0.499,0.16,0.909,0.571,0.914l1.099,0.015l-1.51,8.351
			c-0.002,0-0.004,0-0.005,0.001c-0.244-0.542-0.586-1.226-1.051-1.992c-1.118-1.857-2.959-4.178-5.372-6.017
			c-1.2-0.919-2.447-1.602-3.619-2.051c-1.174-0.457-2.273-0.672-3.181-0.729c-0.912-0.06-1.626,0.035-2.097,0.136
			c-0.474,0.101-0.713,0.195-0.713,0.191c-0.006,0.02,1.049,0.068,2.618,0.626c1.574,0.554,3.614,1.683,5.812,3.373
			c1.469,1.114,3.026,2.559,4.303,4.033c0.755,0.858,1.405,1.722,1.933,2.499c-6.972,0.388-12.561,1.074-18.608,0.998
			c-0.005-0.75-0.084-1.98-0.444-3.492c-0.347-1.514-0.969-3.292-1.853-5.102c0.297-0.519,0.618-1.034,0.972-1.532
			c1.622-2.32,3.423-3.927,4.912-4.773c1.485-0.855,2.578-1.031,2.564-1.049c-0.001,0.003-0.258-0.06-0.757-0.088
			c-0.501-0.026-1.25-0.005-2.173,0.237c-0.918,0.234-1.998,0.701-3.074,1.457c-1.077,0.756-2.149,1.798-3.065,3.094
			c-0.155,0.22-0.307,0.447-0.454,0.681c-0.333-0.556-0.683-1.109-1.068-1.647c-1.039-1.461-2.184-2.681-3.333-3.627
			c-1.148-0.948-2.296-1.614-3.307-2.012c-1.009-0.405-1.868-0.534-2.443-0.559c-0.575-0.022-0.879,0.039-0.879,0.033
			c-0.013,0.017,1.243,0.233,2.865,1.383c1.632,1.133,3.582,3.182,5.512,5.909c0.547,0.764,1.089,1.604,1.604,2.478
			c-0.508,1.114-0.909,2.296-1.144,3.462c-0.22,1.077-0.308,2.132-0.273,3.083c0.024,0.671,0.111,1.279,0.228,1.807
			c-14.717-0.759-27.265,1.355-28.526,2.641h-2.434v-94.58h1.451v-4.322c0.747-0.43,5.951-3.433,9.852-5.823
			c4.702-2.878,6.18-7.535,6.18-7.535h-98.311h-0.254h-98.31c0,0,1.478,4.656,6.179,7.535c3.902,2.39,9.107,5.393,9.852,5.823v4.322
			h1.452v94.58h-2.721c-1.262-1.287-13.81-3.4-28.528-2.641c0.118-0.528,0.205-1.137,0.229-1.807
			c0.035-0.95-0.054-2.006-0.273-3.083c-0.234-1.166-0.636-2.348-1.144-3.462c0.514-0.874,1.057-1.714,1.604-2.478
			c1.931-2.728,3.881-4.776,5.513-5.909c1.621-1.15,2.876-1.366,2.863-1.383c0,0.006-0.302-0.055-0.878-0.033
			c-0.576,0.025-1.434,0.154-2.443,0.559c-1.01,0.398-2.16,1.064-3.307,2.012c-1.148,0.946-2.293,2.166-3.333,3.627
			c-0.384,0.538-0.734,1.091-1.068,1.647c-0.147-0.234-0.298-0.462-0.453-0.681c-0.916-1.296-1.988-2.338-3.065-3.094
			c-1.076-0.757-2.156-1.223-3.075-1.457c-0.922-0.242-1.672-0.263-2.172-0.237c-0.499,0.028-0.756,0.091-0.758,0.088
			c-0.014,0.018,1.08,0.194,2.566,1.049c1.487,0.846,3.288,2.453,4.912,4.773c0.354,0.498,0.674,1.013,0.971,1.532
			c-0.883,1.81-1.505,3.588-1.853,5.102c-0.361,1.513-0.439,2.743-0.443,3.492c-6.048,0.076-11.637-0.61-18.608-0.998
			c0.528-0.777,1.178-1.641,1.932-2.499c1.277-1.474,2.834-2.919,4.303-4.033c2.199-1.691,4.238-2.819,5.811-3.373
			c1.57-0.558,2.624-0.606,2.618-0.626c0,0.005-0.239-0.09-0.713-0.191c-0.471-0.101-1.184-0.196-2.097-0.136
			c-0.907,0.056-2.008,0.272-3.181,0.729c-1.172,0.449-2.419,1.132-3.619,2.051c-2.413,1.839-4.255,4.16-5.372,6.017
			c-0.465,0.766-0.808,1.449-1.051,1.992c-0.002-0.001-0.004-0.001-0.005-0.001l-1.51-8.351l1.1-0.015
			c0.41-0.005,0.663-0.415,0.571-0.914c-0.729-3.912-1.442-7.812-2.134-11.717l1.049-0.019c0.391-0.007,0.631-0.416,0.54-0.913
			c-0.713-3.901-1.407-7.797-2.076-11.696l0.999-0.018c0.372-0.007,0.601-0.416,0.513-0.914c-0.692-3.897-1.358-7.795-1.997-11.693
			l0.949-0.015c0.353-0.008,0.569-0.415,0.486-0.915c-0.663-3.895-1.299-7.792-1.908-11.69l0.899-0.015
			c0.333-0.007,0.541-0.413,0.459-0.909c-0.63-3.899-1.231-7.795-1.807-11.695l0.849-0.012c0.318-0.004,0.51-0.412,0.432-0.911
			c-0.594-3.895-1.165-7.794-1.702-11.694l0.801-0.009c0.296-0.003,0.476-0.411,0.405-0.909c-0.559-3.897-1.088-7.797-1.586-11.699
			l0.748-0.007c0.277-0.001,0.449-0.407,0.383-0.906c-0.521-3.9-1.012-7.801-1.469-11.705l0.7-0.001
			c0.257-0.003,0.419-0.41,0.357-0.906c-0.403-3.285-0.779-6.573-1.135-9.858c0.586,0.04,1.233,0.023,1.902-0.088
			c1.44-0.22,2.925-0.844,4.051-1.647c0.851-0.599,1.505-1.326,1.965-2.043c0.463-0.72,0.733-1.431,0.879-2.029
			c0.286-1.21,0.105-1.942,0.116-1.937c-0.004-0.007-0.539,0.504-1.37,1.187c-0.216,0.178-0.452,0.367-0.706,0.562
			c0.432-0.908,0.589-1.801,0.599-2.519c0.342-0.394,0.643-0.82,0.87-1.246c0.674-1.242,0.644-2.534,0.403-3.362
			c-0.237-0.844-0.631-1.254-0.623-1.254c-0.006-0.002-0.352,0.435-0.816,1.021c-0.326,0.414-0.706,0.896-1.071,1.448
			c-0.022-0.245-0.051-0.481-0.085-0.691c-0.012-0.067-0.025-0.127-0.036-0.191c0.251-0.507,0.476-1.021,0.647-1.525
			c0.611-1.769,0.485-3.486,0.106-4.586c-0.374-1.119-0.911-1.607-0.9-1.606c-0.005-0.001-0.104,0.351-0.294,0.894
			c-0.08-0.351-0.191-0.663-0.318-0.919c-0.288-0.576-0.611-0.9-0.772-1.044c0.071-0.326,0.101-0.646,0.094-0.941
			c-0.015-0.546-0.145-1.015-0.306-1.382c-0.32-0.739-0.73-1.078-0.723-1.082c-0.005-0.004-0.329,0.415-0.732,0.985
			c-0.132,0.186-0.273,0.39-0.413,0.599c0.292-0.888,0.305-1.854,0.095-2.623c-0.202-0.78-0.58-1.352-0.932-1.753
			c-0.722-0.8-1.338-1.009-1.331-1.02c-0.008-0.002-0.003,0.339-0.01,0.859c-0.001-0.013,0-0.025-0.002-0.038
			c-0.455-5.396-0.835-10.797-1.128-16.2c0.533,0.2,1.228,0.444,2.039,0.682c0.923,0.273,2.469,0.768,3.559,1.228
			c0.546,0.231,1.211,0.624,1.776,1.018c0.564,0.395,1.107,0.927,1.712,1.403c0.206,0.161,0.492-0.791,0.513-0.966
			c0.02-0.173,0.175-1.367,0.594-0.965c0.419,0.402,0.658,1.612,0.779,2.256c0.121,0.643,0.173,1.762,0.535,2.265
			c0.363,0.504,0.766,0.982,1.01,1.389c0.244,0.408,0.332,0.545,0.531,0.85c0.199,0.304,0.34,0.602,0.522,0.849
			c0.984,1.324,0.872,2.33,2.084,3.757c0.686,0.808,1.444-3.373,2.329-4.459c0.083-0.102-0.152,2.541-0.406,3.294
			c-0.253,0.754-0.901,3.676-0.519,4.827c0.635,1.914,0.959,3.82,2.036,5.553c0.223,0.358,2.491-2.486,2.929-2.012
			c0.437,0.472-0.52,2.335-0.826,2.925c-0.306,0.589-1.277,2.327-1.162,2.757c0.713,2.665,1.177,4.973,1.732,7.409
			c0.063,0.275,0.769-1.207,1.122-1.637c0.354-0.431,1.505-2.628,2.47-2.798c0.246-0.044-0.884,3.113-1.269,3.719
			c-0.383,0.606-1.842,3.135-1.941,3.911c-0.098,0.777-0.006,1.048,0.108,1.581s2.041-1.573,2.141-1.649
			c0.101-0.076,2.009-2.526,2.083-1.797c0.074,0.73-1.373,3.013-1.878,3.731c-0.503,0.719-2.267,2.981-2.298,3.313
			c-0.191,2.089-0.062,3.224,0.052,4.993c0.018,0.291,1.607-1.456,1.666-1.526c0.06-0.069,1.598-2.244,1.694-1.673
			c0.095,0.572-1.141,2.715-1.565,3.255c-0.423,0.54-1.696,2.812-1.667,2.942c0.225,1.022,0.025,2.974,0.701,3.183
			c0.678,0.208,1.756-1.356,2.648-2.099c0.154-0.128,0.73-2.748,0.778-3.539c0.046-0.79,0.405-3.143,0.828-3.722
			c0.423-0.579,0.8,1.545,0.848,1.65c0.047,0.104,0.492,2.102,0.8,1.676c0.985-1.366,1.577-2.269,2.397-4.038
			c0.181-0.391,0.013-2.621-0.173-3.432c-0.185-0.81-0.621-2.628-0.442-3.371c0.178-0.742,1.177,0.757,1.28,0.903
			c0.103,0.145,1.126,1.552,1.279,0.931c0.689-2.785,1.12-4.57,1.128-7.884c0.001-0.547-1.807-3.92-2.576-4.901
			c-0.768-0.98-2.75-3.363-3.042-4.303c-0.292-0.94,2.59,1.396,2.667,1.461c0.076,0.065,2.668,2.423,2.59,1.821
			c-0.227-1.741-0.505-3.336-1.117-5.182c-0.097-0.295,0.048-0.331-0.452-1.197c-0.5-0.867-2.937-3.09-4.07-4.031
			c-1.132-0.941-3.78-2.817-4.407-3.638c-0.627-0.821,3.331,1.507,3.375,1.475c0.044-0.034,3.64,2.283,3.373,1.75
			c-0.652-1.297-0.794-1.873-2.003-3.536c-0.474-0.651-3.57-2.837-4.863-3.502c-1.294-0.664-4.556-2.244-5.342-2.849
			c-0.788-0.604,0.695,0.008,0.859-0.038c0.162-0.046,2.263,0.621,2.475,0.668c0.422,0.096,3.786,1.308,3.559,0.989
			c-0.571-0.798-1.576-1.739-2.38-2.586c-0.295-0.311-0.828-0.775-1.217-1.118c-0.39-0.343-0.868-0.793-1.297-1.134
			c-1.719-1.37-3.824-2.717-5.755-3.632c-0.369-0.175-0.753-0.323-1.144-0.459c0.079-0.005,0.159-0.008,0.233-0.011
			c0.278-0.012-0.178-0.988-0.462-1.069c-0.284-0.083-1.332-0.979-0.384-1.033c0.947-0.055,2.634,0.554,3.53,0.902
			c0.896,0.349,2.833,1.072,3.411,1.096c4.182,0.177,7.929,0.602,11.75,1.008c0.535,0.057-0.959-0.924-1.305-1.344
			c-0.344-0.42-2.777-2.28-1.915-3.276c0.159-0.184,2.891,1.534,3.517,2.383c0.314,0.426,2.1,1.535,2.847,2.085
			c0.746,0.549,1.677,1.189,2.682,1.589c1.006,0.399,2.555,1.018,3.575,1.376c1.401,0.491,2.423,1.178,3.81,1.52
			c0.282,0.068,0.236-1.647,0.112-1.885c-0.124-0.239-0.355-2.056,0.083-1.895c1.088,0.398,2,2.19,2.422,3.076
			c0.422,0.888,1.32,2.663,1.78,2.934c2.839,1.673,5.236,3.085,7.855,4.497c0.295,0.16-0.482-1.556-0.553-2.064
			c-0.07-0.509-1.366-3.028-0.34-3.559c0.26-0.134,1.865,2.561,2.016,3.523c0.152,0.961,1.259,3.165,1.857,4.057
			c0.2,0.297,0.268,0.174,0.376,0.293c0.108,0.118,0.125,0.076,0.179,0.127c0.054,0.05,0.025,0.016,0.054,0.038
			c0.027,0.022,0.002-0.003,0.019,0.004c0.017,0.007,0.012-0.006,0.032,0.001c0.019,0.009,0.007-0.005,0.038,0.015
			s0.038,0.041,0.094,0.074c0.056,0.035,0.083,0.096,0.186,0.14c0.104,0.045,0.181,0.238,0.362,0.238
			c0.18,0.002,0.17-0.668,0.133-0.823c-0.038-0.154-0.014-0.306-0.022-0.461c-0.007-0.154,0.079-0.247,0.065-0.43
			c-0.013-0.182-0.09-0.887-0.097-1.001c-0.042-0.628-0.706-2.594-0.048-2.803c0.317-0.102,0.559,0.877,0.736,1.215
			c0.089,0.169,0.375,0.872,0.492,1.145c0.027,0.067,0.095,0.231,0.108,0.304s0.009,0.082,0.031,0.159
			c0.023,0.076,0.034,0.092,0.074,0.214c0.04,0.123,0.207,0.561,0.251,0.695c0.227,0.716,0.829,2.011,1.002,2.53
			c0.173,0.522,0.507,1.228,0.645,1.307c1.736,0.989,3.221,2.09,4.903,2.762c0.279,0.111-0.618-2.26-0.722-2.419
			c-0.104-0.159-1.416-2.66-0.65-2.283c0.765,0.379,1.68,2.171,2.257,3.186c0.289,0.509,1.273,1.965,1.498,2.453
			c0.225,0.487,0.732,1.328,0.839,1.426c0.836,0.778,1.849,1.637,2.404,2.229c0.555,0.593,0.488,0.528,0.924,1.043
			c-0.023-0.738,0.125-0.571,0.078-1.485c-0.047-0.915-0.095-2.435-0.565-3.671c-0.082-0.213-0.701-1.177-1.182-1.624
			c-0.481-0.446-1.776-1.736-2.312-2.211c-1.075-0.953-2.484-1.78-3.051-2.896c-0.348-0.684,1.737,0.129,1.9,0.184
			c0.162,0.057,2.182,0.796,1.992,0.331c-0.611-1.489-1.292-2.662-2.345-4.171c-0.234-0.334-1.931-1.202-2.593-1.378
			c-0.166-0.045-0.734-0.371-0.874-0.434c-0.14-0.064-0.155-0.084-0.224-0.119c-0.068-0.034-0.067-0.037-0.105-0.059
			c-0.039-0.021-0.025-0.011-0.057-0.032c-0.031-0.02-0.03-0.019-0.076-0.054c-0.045-0.035-0.191-0.13-0.244-0.16
			c-0.054-0.031-0.174-0.086-0.199-0.101c-0.258-0.156-0.872-0.358-0.936-0.624c-0.153-0.639,1.267-0.417,1.534-0.434
			c0.268-0.017,0.473-0.012,0.631-0.021c0.157-0.009,0.121,0.01,0.212,0.02c0.091,0.01,0.124,0.029,0.195,0.039
			c0.071,0.011,0.104,0.033,0.173,0.036c0.069,0.004,0.035,0.015,0.139-0.013s0.488-0.085,0.334-0.323
			c-0.349-0.539-0.646-0.989-1.088-1.497c-0.442-0.509-0.581-0.858-1.158-1.405c-1.156-1.095-1.253-1.843-3.093-3.033
			c-0.594-0.385-4.109-1.402-5.651-1.516c-0.769-0.056-3.368-0.777-4.166-0.857c-0.799-0.08-2.132-0.243-2.371-0.512
			c-0.581-0.65,3.274-0.621,3.556-0.647c0.283-0.025,4.268,0.124,3.704-0.353c-1.628-1.378-3.932-2.345-6.015-3.469
			c-0.445-0.24-0.81-0.478-1.748-0.76c-0.373-0.112-1.762-0.357-2.908-0.421c-1.148-0.064-3.863-0.301-5.367-0.222
			c-0.376,0.02-1.084,0.027-1.486,0.044c-0.402,0.017-1.137,0.063-1.465,0.084c-0.631,0.042-2.056,0.251-2.409,0.292
			c-0.701,0.081-2.447,0.542-2.564,0.356c-0.385-0.615,3.739-1.462,4.376-1.67c0.081-0.025,0.73-0.174,1-0.223
			c0.269-0.047,0.711-0.129,1.079-0.184c0.368-0.055,1.311-0.223,1.611-0.273c0.302-0.051,1.539-0.222,1.23-0.421
			s-0.918-0.264-1.386-0.397c-0.467-0.134-0.906-0.253-1.476-0.345c-1.132-0.184-1.76-0.402-3.187-0.49
			c-0.549-0.034-1.972,0.139-3.014,0.375c-1.042,0.236-3.81,0.87-4.864,1.237c-2.114,0.736-5.796,2.144-7.197,2.533
			c-1.402,0.389,2.857-2.143,3.066-2.291c0.21-0.147,3.914-2.044,3.433-2.065c-4.821-0.215-12.258,1.738-16.522,3.026
			c-3.271,0.989-6.25,2.596-8.676,4.01c1.376-1.048,3.011-2.209,4.947-3.429c0.323-0.204-0.336-0.439-1.005-0.668
			c-0.664-0.231-1.334-0.445-0.978-0.701c0.293-0.207,1.612-0.426,2.916-0.549c1.307-0.138,2.595-0.189,2.908-0.359
			c2.263-1.263,4.838-2.571,7.781-3.892c0.414-0.185-0.307-0.211-1.387-0.468c-1.082-0.263-2.536-0.728-3.561-1.915
			c-0.19-0.218,1.533,0.022,3.561,0.323c2.031,0.284,4.341,0.658,5.599,0.273c2.095-0.647,4.102-1.572,6.155-2.293
			c0.208-0.074-0.462-0.832-1.15-1.58c-0.69-0.751-1.396-1.49-1.181-1.572c0.534-0.206,1.977,0.263,3.362,0.782
			c1.391,0.517,2.727,1.084,3.213,0.926c3.006-0.993,5.779-1.863,8.323-2.638c0.285-0.086-0.62-0.364-1.815-0.848
			c-1.191-0.488-2.685-1.165-3.502-2.184c-0.21-0.261,1.965,0.132,4.179,0.708c2.223,0.561,4.448,1.322,4.76,1.233l1.668-0.492
			c0.367-0.107-0.83-1.002-2.118-1.843c-1.278-0.848-2.639-1.636-2.283-1.772c0.337-0.133,2.389,0.408,4.337,1.082
			c1.961,0.657,3.79,1.451,4.095,1.366c1.913-0.549,3.612-1.016,5.087-1.418c0.245-0.067-0.845-0.719-2.017-1.312
			c-1.162-0.6-2.392-1.139-2.171-1.222c0.347-0.135,2.137,0.204,3.848,0.672c1.717,0.459,3.336,1.054,3.616,0.979
			c2.235-0.586,3.469-0.941,3.463-0.951c-0.007,0.01-0.831-1.008-2.973-2.388c-0.37-0.242-2.208-0.249-4.035-0.111
			c-1.833,0.124-3.66,0.375-4.199,0.179c-0.333-0.118,0.645-0.709,1.657-1.259c1.006-0.552,2.047-1.068,1.647-1.218
			c-1.284-0.472-2.742-0.908-4.377-1.267c-0.361-0.081-1.965,0.429-3.512,1.02c-1.555,0.581-3.056,1.235-3.439,1.201
			c-0.459-0.041,0.19-0.781,0.859-1.507c0.669-0.727,1.358-1.436,0.834-1.479c-2.365-0.184-4.969-0.184-7.784,0.083
			c-0.463,0.039-2.939,1.572-5.233,3.254c-2.312,1.674-4.441,3.48-4.884,3.596c-0.542,0.146,0.575-1.422,1.795-2.945
			c1.211-1.528,2.523-3.008,1.91-2.871c-1.778,0.405-3.611,0.921-5.486,1.566c-0.401,0.139-0.8,0.279-1.201,0.426
			c-0.322,0.119-2.656,2.283-4.737,4.585c-2.109,2.292-3.944,4.706-4.221,4.871c-0.474,0.28,0.574-1.712,1.797-3.661
			c1.204-1.952,2.575-3.851,2.045-3.598c-1.282,0.628-2.543,1.304-3.781,2.031c-0.486,0.28-2.45,2.691-4.129,5.219
			c-1.707,2.516-3.09,5.128-3.474,5.48c-0.369,0.341,0.201-1.595,0.948-3.526c0.73-1.933,1.626-3.845,1.199-3.526
			c-4.261,3.232-7.349,6.66-9.462,9.808c-1.065,1.583-1.883,3.09-2.512,4.484c-0.08-0.585-0.191-1.189-0.339-1.808
			c-0.099-0.402-0.522,0.175-0.971,0.717c-0.449,0.546-0.921,1.051-1.008,0.652c-0.07-0.319,0.211-1.566,0.351-2.884
			c0.155-1.309,0.175-2.671,0.008-3.017c-1.197-2.509-2.928-5.053-5.159-7.478c-0.319-0.342-0.083,0.364-0.032,1.468
			c0.054,1.108-0.115,2.598-1.102,3.816c-0.184,0.226-0.13-1.376-0.395-3.328c-0.251-1.943-0.855-4.226-1.792-5.169
			c-1.542-1.568-3.412-2.727-5.199-3.853c-0.183-0.114-0.361,0.879-0.557,1.867c-0.197,0.988-0.412,1.969-0.583,1.861
			c-0.422-0.266-0.812-1.615-1.259-2.955c-0.442-1.342-0.941-2.675-1.385-2.895c-2.732-1.352-5.35-2.28-7.785-2.915
			c-0.275-0.071,0.322,0.619,0.95,1.655c0.631,1.036,1.277,2.422,1.197,3.693c-0.022,0.323-1.165-1.21-2.494-2.801
			c-1.316-1.595-2.836-3.234-3.144-3.283c-0.551-0.088-1.091-0.162-1.616-0.221c-0.359-0.039,0.332,1.227,0.962,2.505
			c0.636,1.277,1.215,2.567,0.899,2.534c-0.302-0.035-1.505-1.384-2.802-2.687c-1.287-1.309-2.678-2.566-2.975-2.562
			c-1.856,0.016-3.48,0.2-4.855,0.465c-0.226,0.045,0.687,0.779,1.543,1.543c0.862,0.759,1.68,1.547,1.482,1.582
			c-0.305,0.056-1.617-0.632-2.974-1.252c-1.35-0.624-2.763-1.164-3.012-1.072c-1.952,0.705-2.811,1.406-2.814,1.398
			c-0.004,0.006,0.858,0.737,2.399,1.953c0.266,0.207,1.602,0.126,3.003,0.156c1.395,0.018,2.838,0.134,3.184,0.433
			c0.217,0.186-0.673,0.541-1.522,0.925c-0.854,0.383-1.663,0.799-1.415,0.984c0.797,0.591,1.673,1.229,2.636,1.906
			c0.211,0.15,1.402,0.005,2.629-0.085c1.222-0.096,2.474-0.144,2.702,0.028c0.281,0.21-0.46,0.625-1.177,1.062
			c-0.715,0.432-1.405,0.881-1.103,1.081c1.359,0.901,2.845,1.854,4.461,2.851c0.263,0.164,2.341-0.045,4.478-0.113
			c2.132-0.084,4.317-0.02,4.592,0.186c0.336,0.246-1.232,0.603-2.743,1.038c-1.516,0.426-2.979,0.922-2.621,1.133l3.222,1.905
			l0.713,0.419c0.19,0.111,2.45,0.032,4.757,0.159c2.303,0.104,4.65,0.46,4.835,0.613c0.312,0.253-1.528,0.263-3.313,0.43
			c-1.791,0.154-3.524,0.441-3.204,0.631c0.776,0.471,1.545,0.948,2.301,1.429c0.296,0.187,2.457,0.299,4.642,0.676
			c1.089,0.183,2.185,0.426,3.043,0.678c0.856,0.254,1.472,0.505,1.606,0.642c0.255,0.256-1.399,0.028-3.012,0.002
			c-1.616-0.04-3.186,0.081-2.923,0.268c2.631,1.897,4.611,3.599,6.131,5.176c1.364,1.413,2.365,2.752,3.118,3.984
			c-0.681-0.839-1.5-1.692-2.459-2.531c-1.992-1.754-4.561-3.47-7.675-5.057c-0.53-0.268-0.276,0.484-0.055,1.231
			c0.224,0.75,0.417,1.494-0.142,1.208c-0.45-0.23-1.672-1.469-2.976-2.664c-1.297-1.197-2.67-2.351-3.194-2.544
			c-1.887-0.699-3.911-1.351-6.1-1.941c-1.095-0.295-2.23-0.573-3.433-0.827c-0.602-0.124-1.218-0.244-1.88-0.354
			c-0.724-0.114-1.299-0.195-1.948-0.28c-0.714-0.089,0.241,0.337,1.439,1.216c1.295,0.895,2.538,2.268,2.614,3.845
			c0.005,0.148-0.394-0.13-1.082-0.632c-0.346-0.252-0.765-0.559-1.255-0.891c-0.523-0.337-1.043-0.688-1.619-1.048
			c-2.284-1.443-5.226-2.898-7.286-3.065c-3.413-0.291-6.869-0.009-10.222,0.308c-0.343,0.031,0.333,0.908,0.989,1.793
			c0.657,0.885,1.294,1.778,0.966,1.806c-0.808,0.068-2.578-0.705-4.395-1.416c-1.81-0.72-3.662-1.376-4.446-1.228
			c-4.831,0.893-9.168,2.179-12.992,3.695c-0.432,0.174,0.969,0.17,2.725,0.416c1.755,0.241,3.853,0.756,4.874,1.74
			c0.259,0.253-2.658-0.023-5.841-0.085c-1.588-0.037-3.242-0.023-4.559,0.045c-1.318,0.065-2.295,0.179-2.519,0.296
			c-0.816,0.422-1.598,0.85-2.348,1.287c-0.51,0.296,1.498,0.506,3.45,0.831c1.958,0.316,3.862,0.736,3.407,0.971
			c-0.437,0.228-3.229,0.3-6.073,0.61c-2.835,0.287-5.72,0.859-6.099,1.16c-2.38,1.859-4.246,3.72-5.666,5.42
			c-0.233,0.283,1.476-0.32,3.195-0.763c1.716-0.46,3.433-0.781,3.214-0.562c-0.343,0.34-2.594,1.239-4.755,2.382
			c-2.169,1.111-4.215,2.507-4.41,2.86c-0.794,1.376-1.245,2.469-1.509,3.2c-0.265,0.735-0.349,1.116-0.352,1.115
			c0.001,0.003,0.367-0.163,1.077-0.493c0.708-0.327,1.752-0.811,3.13-1.394c0.472-0.207,1.913-1.853,3.624-3.366
			c1.688-1.529,3.609-2.917,4.308-3.073c0.432-0.096-0.397,1.007-1.121,2.126c-0.733,1.118-1.353,2.243-0.896,2.086
			c1.465-0.489,3.093-0.99,4.892-1.495c0.391-0.11,1.788-1.356,3.317-2.53c1.518-1.183,3.154-2.293,3.609-2.372
			c0.553-0.094-0.076,0.822-0.651,1.739c-0.579,0.918-1.102,1.836-0.531,1.702c2.575-0.601,5.412-1.189,8.529-1.759
			c0.502-0.094,3.193-1.873,6.103-3.473c2.89-1.618,5.968-3.055,6.542-3.085c0.698-0.043-1.123,1.283-2.829,2.666
			c-1.715,1.381-3.314,2.815-2.616,2.708c2.026-0.301,4.148-0.589,6.363-0.853l1.423-0.167c0.379-0.046,3.522-1.62,6.844-2.966
			c3.304-1.37,6.785-2.475,7.19-2.457c0.68,0.024-1.726,1.11-4.006,2.335c-2.29,1.211-4.463,2.542-3.807,2.486
			c0.661-0.052,1.324-0.098,1.986-0.142c-1.999,0.576-3.926,1.345-5.799,2.09c-0.261,0.104,0.542,0.793,1.33,1.49
			c0.79,0.698,1.567,1.407,1.314,1.507c-0.626,0.247-2.278-0.1-3.942-0.401c-1.662-0.304-3.335-0.569-3.914-0.283
			c-1.795,0.879-3.463,1.784-5.018,2.69c-0.78,0.454-1.529,0.908-2.253,1.361l-1.067,0.677l-0.563,0.363
			c-0.197,0.123-0.407,0.265-0.584,0.386c-0.134,0.098,0.031,0.134,0.523,0.088l0.403-0.027c0.146-0.009,0.313-0.025,0.46-0.024
			c0.306-0.002,0.654-0.004,1.021,0.004c1.475,0.03,3.302,0.214,4.401,0.989c0.276,0.197-2.168,0.415-4.774,0.702
			c-0.346,0.043-0.719,0.106-1.048,0.155l-0.933,0.112c-0.614,0.075-1.205,0.15-1.728,0.229c-1.049,0.154-1.835,0.319-1.999,0.442
			c-0.586,0.449-1.158,0.9-1.712,1.355c-0.373,0.307,1.376,0.414,3.067,0.606c1.696,0.183,3.36,0.404,3.037,0.672
			c-0.31,0.265-2.612,0.561-4.974,0.992c-1.18,0.214-2.375,0.475-3.315,0.737c-0.944,0.263-1.627,0.523-1.77,0.675
			c-1.772,1.902-3.118,3.832-4.005,5.607c-0.146,0.29,1.283-0.498,2.719-1.04c1.439-0.561,2.874-0.942,2.726-0.727
			c-0.229,0.343-2.024,1.284-3.682,2.551c-0.83,0.628-1.624,1.329-2.201,1.949c-0.576,0.617-0.939,1.132-0.971,1.307
			c-0.264,1.391-0.227,2.435-0.16,3.105c0.071,0.676,0.171,0.999,0.168,0.999l0.735-0.691c0.485-0.445,1.208-1.074,2.199-1.755
			c0.169-0.12,0.411-0.568,0.755-1.177c0.343-0.606,0.803-1.371,1.342-2.115c1.068-1.501,2.462-2.888,3.033-3.062
			c0.354-0.112-0.146,0.968-0.512,2.029c-0.381,1.065-0.603,2.097-0.259,1.94c1.108-0.493,2.363-0.989,3.78-1.51
			c0.306-0.116,1.244-1.328,2.339-2.53c1.084-1.205,2.279-2.401,2.657-2.518c0.459-0.141,0.097,0.8-0.227,1.726
			c-0.327,0.929-0.609,1.841-0.14,1.675c1.061-0.373,2.19-0.779,3.404-1.241c0.606-0.23,1.236-0.48,1.891-0.751
			c0.29-0.115,0.517-0.191,0.817-0.304l0.961-0.378c0.421-0.168,2.32-2.296,4.278-4.374c1.952-2.082,4.002-4.099,4.456-4.252
			c0.549-0.19-0.518,1.464-1.512,3.127c-1,1.665-1.944,3.338-1.391,3.104l4.989-2.121l1.099-0.466
			c0.294-0.125,2.34-2.314,4.556-4.37c2.192-2.07,4.615-3.967,4.944-4.049c0.54-0.143-1.053,1.485-2.481,3.191
			c-1.443,1.699-2.754,3.461-2.257,3.261c1.211-0.485,2.422-0.953,3.632-1.395c0.472-0.173,2.561-2.077,4.893-3.765
			c0.581-0.423,1.175-0.836,1.751-1.213c0.571-0.381,1.075-0.708,1.601-0.991c1.018-0.562,1.819-0.915,2.082-0.946
			c0.51-0.056-1.147,1.149-2.586,2.474c-0.649,0.655-1.356,1.355-1.796,1.861c-0.442,0.514-0.653,0.835-0.43,0.773
			c0.559-0.161,1.108-0.309,1.644-0.447c0.264-0.067,0.492-0.133,0.725-0.188c0.239-0.061,0.521-0.117,0.773-0.174
			c1.038-0.224,2.042-0.409,3.015-0.566c1.94-0.31,3.756-0.499,5.447-0.62c1.62-0.11,3.119-0.162,4.497-0.186
			c-0.312,0.183-0.622,0.364-0.941,0.563c-0.586,0.36,2.585,0.974,1.96,1.388c-0.253,0.162-1.444,0.274-2.641,0.412
			c-1.197,0.136-2.389,0.285-2.635,0.465l-0.673,0.485l-0.316,0.219c-0.094,0.062-0.191,0.125-0.229,0.124l-0.005-0.001
			c0.067-0.071-0.096,0.096-0.079,0.078l-0.003,0.002l-0.005,0.005l-0.011,0.007l-0.045,0.033l-0.092,0.065l-0.184,0.132
			c-0.125,0.092-0.24,0.171-0.378,0.279l-0.798,0.622c-1.053,0.832-2.131,1.764-3.222,2.805c-0.309,0.294,0.355,0.086,1.415,0.046
			c1.061-0.044,2.507,0.102,3.774,1.018c0.238,0.17-1.324,0.177-3.197,0.418c-1.872,0.233-4.062,0.744-4.965,1.618
			c-1.495,1.436-2.641,3.214-3.766,4.939c-0.113,0.174,0.871,0.377,1.851,0.598c0.978,0.221,1.953,0.462,1.843,0.625
			c-0.266,0.405-1.603,0.746-2.939,1.154c-1.336,0.402-2.668,0.866-2.889,1.306c-1.366,2.68-2.292,5.284-2.896,7.692
			c-0.067,0.271,0.614-0.323,1.643-0.939c1.029-0.622,2.406-1.251,3.673-1.158c0.323,0.025-1.2,1.128-2.771,2.436
			c-1.575,1.295-3.183,2.8-3.224,3.104c-0.077,0.539-0.138,1.07-0.187,1.585c-0.033,0.351,1.217-0.332,2.479-0.954
			c1.262-0.631,2.534-1.197,2.506-0.889c-0.027,0.293-1.348,1.476-2.619,2.748c-1.277,1.264-2.499,2.61-2.489,2.896
			c0.051,1.787,0.258,3.337,0.515,4.643c0.042,0.217,0.78-0.627,1.535-1.444c0.752-0.823,1.523-1.619,1.561-1.429
			c0.062,0.298-0.607,1.575-1.227,2.87c-0.626,1.291-1.209,2.596-1.13,2.835c0.62,1.875,1.187,2.795,1.183,2.795
			c0.005,0.005,0.842-0.72,2.14-2.203c0.224-0.261,0.202-1.6,0.235-2.973c0.028-1.37,0.122-2.774,0.416-3.115
			c0.182-0.209,0.549,0.656,0.94,1.493c0.388,0.837,0.8,1.646,0.986,1.4c0.592-0.789,1.226-1.659,1.888-2.608
			c0.144-0.21-0.02-1.377-0.137-2.569c-0.124-1.189-0.201-2.401-0.035-2.627c0.202-0.268,0.637,0.448,1.085,1.14
			c0.449,0.694,0.912,1.361,1.103,1.067c0.869-1.316,1.774-2.744,2.729-4.273c0.153-0.252-0.096-2.241-0.185-4.306
			c-0.104-2.062-0.036-4.193,0.169-4.456c0.243-0.32,0.596,1.223,1.031,2.699c0.431,1.484,0.939,2.897,1.144,2.562l1.862-3.048
			l0.416-0.681c0.109-0.182,0.035-2.389,0.173-4.679c0.117-2.278,0.433-4.618,0.581-4.804c0.245-0.315,0.298,1.52,0.462,3.304
			c0.155,1.788,0.422,3.515,0.616,3.201l1.448-2.307c0.188-0.298,0.324-2.492,0.641-4.74c0.303-2.249,0.745-4.506,1.015-4.846
			c0.065-0.085,0.105-0.035,0.134,0.115c0.012,0.077,0.019,0.178,0.015,0.307l-0.006,0.103l-0.001,0.027l-0.001,0.001
			c-0.027,0.028,0.037-0.035,0.03-0.029v0.003l0.002,0.006v0.012l0.004,0.049l0.011,0.212c0.017,0.297,0.01,0.669,0.029,1.047
			l0.045,1.207c0.056,1.654,0.193,3.274,0.382,2.987l1.384-2.096c0.112-0.166,0.203-0.317,0.327-0.497l0.178-0.263l0.089-0.131
			l0.042-0.064l0.023-0.035l0.006-0.006c0.017-0.019-0.142,0.142-0.067,0.066l0.022-0.025c0.235-0.295,0.358-0.484,0.491-0.684
			c0.128-0.194,0.239-0.376,0.347-0.552c0.847-1.4,1.499-2.618,2.103-3.754c1.19-2.26,2.065-4.087,2.752-5.451l0.479-0.929
			c0.103-0.194,0.199-0.368,0.299-0.536c0.104-0.004,0.199-0.009,0.293-0.014l-1.675,15.308c-0.212,0.184-0.494,0.441-0.822,0.772
			c-0.695,0.73-1.603,1.829-2.105,3.492c-0.094,0.322-0.168,0.653-0.228,0.99c-0.074-0.214-0.146-0.416-0.209-0.6
			c-0.111-0.328-0.192-0.609-0.217-0.822c-0.028-0.213-0.007-0.357-0.009-0.355c0.002,0.005-0.141-0.005-0.377,0.113
			c-0.237,0.114-0.546,0.361-0.816,0.737c-0.55,0.749-0.946,1.963-0.768,3.293c0.016,0.121,0.039,0.238,0.06,0.356
			c-0.055-0.119-0.087-0.188-0.087-0.19c0.005-0.005-0.478,0.387-0.85,1.265c-0.155,0.36-0.291,0.802-0.37,1.3
			c-0.143,0.187-0.302,0.44-0.441,0.77c-0.201,0.469-0.353,1.086-0.364,1.782c-0.005,0.004-0.008,0.004-0.012,0.006
			c-0.237,0.133-0.551,0.411-0.8,0.856c-0.51,0.886-0.684,2.36-0.06,3.771c0.538,1.222,1.476,2.274,2.564,2.814
			c-0.051,0.16-0.095,0.332-0.125,0.52c-0.398-0.303-0.81-0.606-1.178-0.839c-0.664-0.431-1.179-0.649-1.181-0.642
			c0.003,0-0.136,0.537-0.084,1.369c0.03,0.416,0.107,0.912,0.324,1.453c0.218,0.535,0.581,1.148,1.242,1.665
			c0.474,0.377,1.052,0.632,1.609,0.77c-0.01,0.212,0.001,0.486,0.065,0.814c-0.509,0.091-0.838,0.227-0.837,0.227
			c0,0,0.148,0.468,0.507,1.045c0.36,0.571,0.938,1.27,1.899,1.673c0.955,0.402,2.067,0.538,2.903,0.452
			c0.244-0.022,0.457-0.06,0.641-0.104c-0.339,3.145-0.683,6.292-1.042,9.438c-0.056,0.5,0.108,0.906,0.367,0.905l0.699-0.005
			c-0.422,3.917-0.859,7.834-1.318,11.754c-0.057,0.501,0.12,0.904,0.4,0.902l0.747-0.006c-0.432,3.919-0.882,7.836-1.351,11.757
			c-0.06,0.5,0.131,0.903,0.429,0.9l0.798-0.01c-0.444,3.92-0.91,7.838-1.395,11.76c-0.062,0.502,0.143,0.903,0.458,0.898l0.85-0.01
			c-0.462,3.92-0.944,7.839-1.447,11.761c-0.065,0.502,0.155,0.902,0.489,0.899l0.898-0.015c-0.477,3.92-0.978,7.842-1.499,11.763
			c-0.068,0.501,0.164,0.901,0.518,0.894l0.947-0.015c-0.499,3.921-1.02,7.841-1.566,11.761c-0.069,0.502,0.175,0.902,0.548,0.897
			l0.998-0.021c-0.523,3.923-1.07,7.843-1.643,11.76c-0.074,0.499,0.183,0.899,0.572,0.891l1.051-0.017
			c-0.553,3.916-1.133,7.834-1.744,11.74c-0.077,0.499,0.19,0.899,0.599,0.892l1.101-0.015c-0.244,1.606-0.497,3.212-0.753,4.815
			c-0.101-0.373-0.215-0.746-0.348-1.118c-0.496-1.408-1.218-2.798-2.084-4.063c-0.865-1.266-1.874-2.41-2.917-3.372
			c-1.572-1.449-3.27-2.504-4.876-3.205c-1.611-0.703-3.127-1.048-4.383-1.166c-1.259-0.121-2.253-0.025-2.914,0.087
			c-0.661,0.112-1,0.229-1.003,0.224c0,0.005,0.362,0.01,1.011,0.079c0.65,0.07,1.593,0.22,2.72,0.563
			c2.255,0.671,5.26,2.2,8.124,4.848c1.43,1.317,2.668,2.809,3.604,4.326c0.528,0.848,0.957,1.701,1.296,2.529
			c-0.606-0.602-1.37-1.095-2.175-1.397c-0.982-0.377-1.99-0.516-2.896-0.552c-1.375-0.044-2.585,0.156-3.632,0.383
			c-1.048,0.23-1.935,0.504-2.665,0.749c-1.456,0.49-2.29,0.849-2.29,0.849c-0.004,0,0.908,0.122,2.449,0.112
			c0.77-0.002,1.694-0.039,2.722-0.084c1.03-0.043,2.168-0.104,3.343-0.062c1.177,0.04,2.278,0.239,3.153,0.691
			c0.879,0.44,1.529,1.133,1.978,1.837c0.247,0.386,0.436,0.76,0.588,1.104c-11.098,0.511-20.902,2.014-29.483,2.421
			c-1.664,0.079-3.269,0.14-4.812,0.188c-0.021-0.189-0.056-0.394-0.114-0.61c0.084-0.483,0.232-1.045,0.475-1.615
			c0.359-0.868,0.911-1.745,1.458-2.484c0.817-1.108,1.542-2.072,2.09-2.777l0.903-1.153c0.004,0.006-0.578,0.013-1.481,0.371
			c-0.889,0.353-2.107,1.091-3.081,2.408c-0.778,1.04-1.277,2.256-1.489,3.322c-0.592-0.594-1.358-1.04-2.095-1.254
			c-0.721-0.218-1.425-0.225-2.021-0.119c-0.597,0.106-1.086,0.32-1.45,0.547c-0.73,0.465-0.972,0.922-0.978,0.915
			c-0.002,0.006,0.507-0.024,1.237,0.024c0.734,0.049,1.663,0.2,2.649,0.494c0.997,0.291,1.834,0.856,2.305,1.465
			c0.141,0.177,0.252,0.349,0.342,0.505c-11.392,0.314-18.939-0.045-18.939,1.019c0,1.413,12.573,4.061,30.967,3.065
			c9.139-0.494,26.247,3.48,37.623,3.48c6.093,0,9.634-0.9,13.231-1.555h249.788c3.596,0.655,7.139,1.555,13.231,1.555
			c11.376,0,28.483-3.974,37.623-3.48c18.395,0.996,30.967-1.653,30.967-3.065c0-1.065-7.547-0.705-18.939-1.019
			c0.09-0.156,0.201-0.328,0.342-0.505c0.471-0.609,1.308-1.174,2.305-1.465c0.987-0.294,1.915-0.445,2.649-0.494
			c0.729-0.047,1.238-0.017,1.237-0.024c-0.005,0.007-0.247-0.45-0.978-0.915c-0.364-0.227-0.852-0.441-1.449-0.547
			c-0.597-0.106-1.3-0.099-2.022,0.119c-0.736,0.214-1.502,0.66-2.094,1.254c-0.213-1.066-0.711-2.281-1.489-3.322
			c-0.975-1.316-2.191-2.054-3.081-2.408c-0.903-0.358-1.485-0.364-1.481-0.371l0.903,1.153c0.548,0.706,1.272,1.67,2.09,2.777
			c0.548,0.739,1.098,1.616,1.458,2.484c0.244,0.571,0.392,1.132,0.475,1.615c-0.058,0.215-0.094,0.421-0.114,0.61
			c-1.544-0.048-3.148-0.109-4.813-0.188c-8.58-0.407-18.384-1.911-29.483-2.421c0.152-0.343,0.341-0.718,0.588-1.104
			c0.449-0.704,1.099-1.397,1.978-1.837c0.875-0.452,1.976-0.651,3.153-0.691c1.176-0.043,2.313,0.019,3.344,0.062
			c1.028,0.045,1.952,0.082,2.722,0.084c1.54,0.01,2.45-0.112,2.448-0.112c0,0-0.835-0.359-2.291-0.849
			c-0.73-0.244-1.617-0.519-2.664-0.749c-1.048-0.227-2.258-0.427-3.632-0.383c-0.908,0.036-1.916,0.175-2.897,0.552
			c-0.805,0.303-1.568,0.795-2.176,1.397c0.34-0.828,0.769-1.681,1.296-2.529c0.938-1.516,2.175-3.009,3.605-4.326
			c2.865-2.648,5.869-4.178,8.124-4.848c1.128-0.343,2.07-0.493,2.72-0.563c0.65-0.069,1.01-0.074,1.01-0.079
			c-0.001,0.005-0.342-0.113-1.002-0.224c-0.66-0.112-1.655-0.208-2.914-0.087c-1.256,0.118-2.772,0.462-4.382,1.166
			c-1.607,0.701-3.304,1.756-4.877,3.205c-1.043,0.961-2.052,2.106-2.917,3.372c-0.866,1.265-1.589,2.655-2.084,4.063
			c-0.133,0.372-0.247,0.746-0.348,1.118c-0.256-1.604-0.509-3.209-0.752-4.815l1.1,0.015c0.409,0.006,0.676-0.393,0.599-0.892
			c-0.611-3.906-1.191-7.824-1.744-11.74l1.052,0.017c0.388,0.008,0.646-0.393,0.571-0.891c-0.574-3.918-1.121-7.837-1.643-11.76
			l0.997,0.021c0.372,0.005,0.617-0.394,0.548-0.897c-0.546-3.92-1.068-7.84-1.566-11.761l0.948,0.015
			c0.353,0.007,0.585-0.393,0.518-0.894c-0.522-3.921-1.023-7.844-1.501-11.763l0.899,0.015c0.334,0.004,0.553-0.396,0.489-0.899
			c-0.503-3.922-0.985-7.842-1.447-11.761l0.85,0.01c0.316,0.005,0.519-0.396,0.457-0.898c-0.483-3.922-0.949-7.84-1.395-11.76
			l0.798,0.01c0.299,0.003,0.49-0.401,0.43-0.9c-0.469-3.92-0.919-7.838-1.351-11.757l0.747,0.006c0.28,0.002,0.458-0.402,0.4-0.902
			c-0.458-3.92-0.896-7.837-1.318-11.754l0.698,0.005c0.26,0.001,0.424-0.405,0.368-0.905c-0.358-3.146-0.703-6.293-1.041-9.438
			c0.183,0.044,0.396,0.082,0.641,0.104c0.836,0.086,1.948-0.049,2.903-0.452c0.962-0.402,1.539-1.101,1.899-1.673
			c0.359-0.577,0.507-1.045,0.507-1.045c0.001,0-0.328-0.136-0.838-0.227c0.065-0.328,0.075-0.602,0.066-0.814
			c0.557-0.137,1.135-0.393,1.609-0.77c0.661-0.517,1.024-1.13,1.242-1.665c0.217-0.541,0.294-1.037,0.325-1.453
			c0.052-0.832-0.087-1.369-0.084-1.369c-0.003-0.006-0.518,0.212-1.182,0.642c-0.368,0.233-0.78,0.536-1.178,0.839
			c-0.03-0.188-0.074-0.36-0.125-0.52c1.087-0.54,2.025-1.592,2.563-2.814c0.624-1.41,0.45-2.885-0.06-3.771
			c-0.25-0.445-0.563-0.723-0.8-0.856c-0.005-0.003-0.007-0.003-0.012-0.006c-0.011-0.696-0.164-1.313-0.363-1.782
			c-0.14-0.331-0.3-0.583-0.442-0.77c-0.08-0.498-0.215-0.94-0.37-1.3c-0.373-0.878-0.855-1.27-0.85-1.265
			c0,0.002-0.033,0.071-0.089,0.19c0.022-0.118,0.044-0.235,0.06-0.356c0.178-1.329-0.217-2.544-0.766-3.293
			c-0.271-0.376-0.58-0.623-0.817-0.737c-0.236-0.117-0.378-0.108-0.377-0.113c-0.003-0.002,0.02,0.143-0.009,0.355
			c-0.026,0.214-0.106,0.494-0.217,0.822c-0.063,0.184-0.135,0.385-0.209,0.6c-0.061-0.337-0.134-0.669-0.227-0.99
			c-0.503-1.663-1.411-2.762-2.106-3.492c-0.328-0.332-0.611-0.589-0.822-0.772l-1.675-15.308c0.094,0.005,0.19,0.01,0.293,0.014
			c0.1,0.168,0.196,0.343,0.298,0.536l0.48,0.929c0.687,1.365,1.562,3.191,2.752,5.451c0.604,1.136,1.257,2.354,2.102,3.754
			c0.108,0.176,0.219,0.358,0.348,0.552c0.133,0.2,0.254,0.389,0.491,0.684l0.023,0.025c0.074,0.075-0.085-0.085-0.067-0.066
			l0.005,0.006l0.023,0.035l0.042,0.064l0.089,0.131l0.179,0.263c0.123,0.18,0.214,0.331,0.327,0.497l1.383,2.096
			c0.189,0.287,0.325-1.333,0.382-2.987l0.045-1.207c0.019-0.378,0.011-0.75,0.029-1.047l0.011-0.212l0.004-0.049v-0.012
			l0.002-0.006v-0.003c-0.008-0.005,0.057,0.057,0.031,0.029l-0.002-0.001l-0.001-0.027l-0.006-0.103
			c-0.005-0.129,0.003-0.23,0.015-0.307c0.027-0.151,0.07-0.2,0.134-0.115c0.27,0.34,0.712,2.598,1.015,4.846
			c0.316,2.248,0.453,4.442,0.641,4.74l1.448,2.307c0.194,0.314,0.461-1.413,0.617-3.201c0.163-1.784,0.215-3.619,0.461-3.304
			c0.148,0.186,0.464,2.527,0.581,4.804c0.139,2.29,0.064,4.497,0.174,4.679l0.416,0.681l1.863,3.048
			c0.204,0.335,0.713-1.078,1.143-2.562c0.436-1.476,0.79-3.019,1.03-2.699c0.206,0.263,0.273,2.394,0.17,4.456
			c-0.09,2.064-0.338,4.054-0.185,4.306c0.956,1.529,1.861,2.957,2.728,4.273c0.192,0.294,0.654-0.373,1.104-1.067
			c0.449-0.692,0.884-1.408,1.085-1.14c0.166,0.225,0.089,1.437-0.035,2.627c-0.117,1.191-0.282,2.359-0.136,2.569
			c0.661,0.949,1.295,1.82,1.887,2.608c0.186,0.246,0.597-0.563,0.985-1.4c0.392-0.837,0.76-1.702,0.941-1.493
			c0.294,0.342,0.388,1.745,0.416,3.115c0.034,1.373,0.013,2.712,0.235,2.973c1.297,1.484,2.134,2.208,2.14,2.203
			c-0.005,0,0.564-0.919,1.183-2.795c0.08-0.239-0.505-1.544-1.13-2.835c-0.62-1.296-1.288-2.572-1.227-2.87
			c0.039-0.19,0.81,0.606,1.562,1.429c0.755,0.817,1.492,1.661,1.535,1.444c0.258-1.306,0.464-2.856,0.515-4.643
			c0.009-0.286-1.214-1.633-2.489-2.896c-1.271-1.273-2.592-2.455-2.619-2.748c-0.028-0.308,1.244,0.259,2.506,0.889
			c1.263,0.622,2.512,1.305,2.479,0.954c-0.049-0.514-0.11-1.046-0.187-1.585c-0.043-0.303-1.649-1.809-3.224-3.104
			c-1.571-1.307-3.095-2.41-2.771-2.436c1.267-0.094,2.644,0.535,3.673,1.158c1.029,0.616,1.71,1.209,1.642,0.939
			c-0.603-2.408-1.53-5.012-2.896-7.692c-0.221-0.44-1.553-0.904-2.89-1.306c-1.336-0.408-2.673-0.749-2.938-1.154
			c-0.11-0.164,0.866-0.404,1.844-0.625c0.979-0.221,1.963-0.423,1.85-0.598c-1.125-1.725-2.27-3.503-3.766-4.939
			c-0.903-0.874-3.094-1.386-4.965-1.618c-1.873-0.241-3.435-0.248-3.197-0.418c1.267-0.916,2.713-1.061,3.774-1.018
			c1.059,0.04,1.723,0.248,1.415-0.046c-1.092-1.041-2.171-1.972-3.222-2.805l-0.799-0.622c-0.138-0.108-0.252-0.187-0.378-0.279
			l-0.184-0.132l-0.092-0.065l-0.044-0.033l-0.01-0.007l-0.007-0.005l-0.001-0.002c0.015,0.018-0.148-0.149-0.08-0.078l-0.005,0.001
			c-0.038,0.001-0.135-0.063-0.23-0.124l-0.315-0.219l-0.673-0.485c-0.246-0.18-1.438-0.329-2.634-0.465
			c-1.198-0.138-2.39-0.251-2.642-0.412c-0.626-0.414,2.546-1.028,1.96-1.388c-0.319-0.199-0.63-0.381-0.941-0.563
			c1.378,0.025,2.877,0.076,4.497,0.186c1.691,0.121,3.507,0.31,5.448,0.62c0.972,0.157,1.976,0.342,3.014,0.566
			c0.253,0.056,0.534,0.113,0.773,0.174c0.233,0.055,0.461,0.121,0.725,0.188c0.536,0.138,1.085,0.286,1.644,0.447
			c0.224,0.062,0.014-0.259-0.429-0.773c-0.442-0.506-1.148-1.206-1.797-1.861c-1.439-1.325-3.096-2.53-2.587-2.474
			c0.263,0.031,1.065,0.383,2.082,0.946c0.526,0.283,1.032,0.611,1.603,0.991c0.575,0.377,1.169,0.79,1.749,1.213
			c2.331,1.688,4.421,3.592,4.894,3.765c1.209,0.442,2.42,0.909,3.632,1.395c0.496,0.2-0.815-1.562-2.259-3.261
			c-1.427-1.706-3.019-3.334-2.48-3.191c0.329,0.082,2.752,1.979,4.944,4.049c2.216,2.056,4.262,4.245,4.557,4.37l1.098,0.466
			l4.989,2.121c0.553,0.234-0.391-1.438-1.391-3.104c-0.995-1.664-2.061-3.317-1.512-3.127c0.453,0.153,2.504,2.171,4.456,4.252
			c1.959,2.078,3.858,4.206,4.278,4.374l0.96,0.378c0.302,0.114,0.528,0.189,0.819,0.304c0.655,0.272,1.284,0.521,1.89,0.751
			c1.215,0.462,2.344,0.868,3.404,1.241c0.469,0.165,0.188-0.746-0.141-1.675c-0.323-0.926-0.685-1.867-0.226-1.726
			c0.378,0.116,1.573,1.313,2.657,2.518c1.096,1.202,2.031,2.414,2.34,2.53c1.416,0.521,2.67,1.017,3.778,1.51
			c0.344,0.157,0.123-0.875-0.258-1.94c-0.365-1.061-0.866-2.141-0.511-2.029c0.571,0.174,1.965,1.561,3.033,3.062
			c0.539,0.744,0.998,1.509,1.342,2.115c0.344,0.61,0.587,1.058,0.756,1.177c0.989,0.681,1.713,1.31,2.198,1.755l0.735,0.691
			c-0.003-0.001,0.096-0.323,0.168-0.999c0.067-0.67,0.104-1.714-0.159-3.105c-0.035-0.174-0.396-0.69-0.972-1.307
			c-0.576-0.62-1.37-1.321-2.2-1.949c-1.658-1.267-3.454-2.208-3.683-2.551c-0.148-0.215,1.287,0.166,2.726,0.727
			c1.436,0.542,2.866,1.33,2.719,1.04c-0.888-1.774-2.233-3.705-4.005-5.607c-0.143-0.152-0.826-0.412-1.77-0.675
			c-0.94-0.262-2.134-0.522-3.315-0.737c-2.362-0.432-4.665-0.727-4.974-0.992c-0.322-0.268,1.341-0.49,3.038-0.672
			c1.689-0.192,3.439-0.299,3.066-0.606c-0.554-0.454-1.127-0.906-1.713-1.355c-0.163-0.123-0.948-0.288-1.998-0.442
			c-0.523-0.079-1.114-0.154-1.727-0.229l-0.934-0.112c-0.33-0.049-0.702-0.113-1.048-0.155c-2.607-0.287-5.052-0.505-4.774-0.702
			c1.099-0.776,2.927-0.959,4.4-0.989c0.368-0.007,0.716-0.005,1.021-0.004c0.147-0.002,0.315,0.015,0.46,0.024l0.403,0.027
			c0.493,0.046,0.658,0.01,0.524-0.088c-0.178-0.121-0.387-0.263-0.584-0.386l-0.563-0.363l-1.068-0.677
			c-0.723-0.453-1.472-0.907-2.252-1.361c-1.555-0.906-3.223-1.811-5.018-2.69c-0.58-0.285-2.252-0.021-3.914,0.283
			c-1.664,0.301-3.317,0.648-3.942,0.401c-0.253-0.1,0.522-0.81,1.314-1.507c0.788-0.697,1.59-1.386,1.329-1.49
			c-1.873-0.745-3.8-1.514-5.799-2.09c0.663,0.044,1.326,0.09,1.987,0.142c0.655,0.056-1.516-1.275-3.807-2.486
			c-2.279-1.225-4.685-2.311-4.007-2.335c0.406-0.018,3.888,1.087,7.192,2.457c3.322,1.346,6.465,2.92,6.843,2.966l1.423,0.167
			c2.214,0.264,4.337,0.552,6.364,0.853c0.698,0.106-0.902-1.327-2.617-2.708c-1.706-1.383-3.526-2.708-2.828-2.666
			c0.572,0.031,3.651,1.467,6.541,3.085c2.911,1.601,5.601,3.379,6.103,3.473c3.116,0.57,5.954,1.158,8.529,1.759
			c0.571,0.134,0.049-0.784-0.531-1.702c-0.574-0.917-1.204-1.833-0.651-1.739c0.457,0.079,2.092,1.189,3.609,2.372
			c1.53,1.174,2.927,2.42,3.318,2.53c1.799,0.505,3.426,1.007,4.892,1.495c0.457,0.157-0.163-0.968-0.896-2.086
			c-0.723-1.119-1.553-2.222-1.121-2.126c0.701,0.155,2.62,1.544,4.309,3.073c1.71,1.513,3.151,3.159,3.623,3.366
			c1.377,0.582,2.423,1.067,3.13,1.394c0.71,0.331,1.076,0.496,1.077,0.493C660.334,182.313,660.25,181.932,659.986,181.197z
			 M572.737,174.318c-0.851,0.565-1.575,1.1-2.19,1.583c-0.047-0.004-0.096-0.01-0.143-0.013c-0.237-0.01-0.458-0.002-0.668,0.017
			C570.483,175.365,571.468,174.821,572.737,174.318z M560.066,208.137c-0.024-0.069-0.048-0.138-0.072-0.207
			c0.023,0.023,0.048,0.04,0.072,0.063V208.137z M575.729,211.709c-0.002-0.025-0.003-0.049-0.005-0.073
			c0.025-0.016,0.05-0.03,0.075-0.047C575.775,211.63,575.752,211.669,575.729,211.709z M571.128,201.003
			c0.001-0.018,0.003-0.039,0.004-0.058c0.003,0.02,0.005,0.039,0.007,0.058H571.128z M563.932,176.432
			c0.251,0.044,0.504,0.09,0.758,0.137c-0.036,0.103-0.065,0.224-0.085,0.358c-0.055-0.039-0.11-0.08-0.176-0.126
			C564.291,176.703,564.127,176.575,563.932,176.432z M563.682,195.303h0.058c-0.019,0.015-0.037,0.026-0.055,0.041
			c-0.081,0.064-0.164,0.137-0.247,0.214c-0.011-0.142-0.025-0.286-0.031-0.421c-0.005-0.118-0.007-0.23-0.01-0.339
			C563.431,195.098,563.538,195.306,563.682,195.303z M534.251,340.413c0.176-1.027,0.531-2.211,1.05-3.43
			c0.273,0.547,0.529,1.098,0.76,1.646c0.779,1.809,1.258,3.562,1.46,4.901c-0.869-0.025-1.749-0.065-2.647-0.125
			c-0.26-0.017-0.518-0.031-0.778-0.047C534.046,342.797,534.008,341.752,534.251,340.413z M352.628,251.356h67.724h0.609h68.588
			v94.58h-3.407v-91.789h-64.2v91.789h-2.037v-91.789h-63.871v91.789h-3.406V251.356z M436.878,302.32
			c0.83,0,1.506,0.678,1.506,1.507v3.204c0,0.829-0.677,1.502-1.506,1.502h-0.482v4.22c0,0.492-0.442,1.05-0.882,1.49
			c-0.443,0.442-0.885,0.76-0.885,0.76s-1.767-1.272-1.767-2.25v-11.692c0-0.487,0.442-0.999,0.88-1.386
			c0.443-0.386,0.887-0.651,0.887-0.655c0,0,1.767,1.064,1.767,2.041v1.258H436.878z M403.719,308.534
			c-0.83,0-1.507-0.673-1.507-1.502v-3.204c0-0.829,0.677-1.507,1.507-1.507h0.477v-1.258c0-0.487,0.443-0.999,0.881-1.386
			c0.443-0.391,0.886-0.655,0.886-0.655c0,0.008,1.767,1.064,1.767,2.041v11.692c0,0.492-0.443,1.05-0.881,1.49
			c-0.442,0.442-0.886,0.76-0.886,0.76s-1.767-1.272-1.767-2.25v-4.22H403.719z M305.828,338.63c0.232-0.548,0.487-1.099,0.76-1.646
			c0.52,1.218,0.875,2.403,1.051,3.43c0.243,1.339,0.205,2.384,0.154,2.945c-0.259,0.016-0.518,0.03-0.778,0.047
			c-0.898,0.061-1.778,0.101-2.648,0.125C304.571,342.192,305.05,340.439,305.828,338.63z M281.823,208.137v-0.144
			c0.025-0.023,0.049-0.04,0.074-0.063C281.872,207.999,281.848,208.068,281.823,208.137z M270.759,200.945
			c0.001,0.019,0.003,0.04,0.004,0.058h-0.012C270.753,200.984,270.756,200.965,270.759,200.945z M266.166,211.637
			c-0.002,0.024-0.002,0.048-0.005,0.073c-0.023-0.04-0.046-0.079-0.07-0.12C266.116,211.607,266.141,211.62,266.166,211.637z
			 M278.493,194.799c-0.003,0.109-0.005,0.221-0.01,0.339c-0.005,0.134-0.02,0.279-0.031,0.421
			c-0.084-0.077-0.166-0.151-0.247-0.214c-0.018-0.015-0.036-0.026-0.055-0.041h0.057
			C278.351,195.306,278.459,195.098,278.493,194.799z M277.286,176.927c-0.02-0.134-0.049-0.255-0.085-0.358
			c0.253-0.047,0.507-0.094,0.758-0.137c-0.195,0.144-0.358,0.272-0.496,0.369C277.396,176.847,277.339,176.888,277.286,176.927z
			 M272.153,175.905c-0.211-0.019-0.431-0.027-0.668-0.017c-0.046,0.003-0.096,0.009-0.144,0.013
			c-0.614-0.482-1.337-1.018-2.189-1.583C270.421,174.821,271.405,175.365,272.153,175.905z M243.116,171.121
			c-1.48-0.548-3.214-1.025-4.716-1.187c0.291-0.094,0.607-0.198,0.95-0.311l2.134-0.694l1.171-0.363
			c0.346-0.125,0.764-0.236,1.167-0.343c1.636-0.434,3.369-0.787,4.751-1.017c1.385-0.229,2.43-0.338,2.755-0.293
			c0.554,0.085-1.18,0.645-3.099,1.341c-0.928,0.019-1.787,0.065-2.685,0.134c-1.042,0.084-2.104,0.205-3.182,0.363
			c-0.61,0.091,0.302,0.261,1.486,0.815c0.173,0.08,0.352,0.172,0.531,0.268c-0.501,0.262-0.721,0.437-0.482,0.446
			c0.439,0.019,0.874,0.047,1.311,0.073c0.755,0.547,1.43,1.276,1.728,2.22C247.024,172.857,245.357,171.929,243.116,171.121z
			 M260.366,172.442c-0.164-0.053-0.459-0.244-0.834-0.511c0.373,0.061,0.744,0.124,1.1,0.185
			C260.683,172.376,260.631,172.527,260.366,172.442z M267.431,205.523v0.387c-0.061-0.213-0.125-0.422-0.194-0.624
			C267.302,205.37,267.366,205.448,267.431,205.523z M574.652,205.286c-0.068,0.203-0.133,0.412-0.194,0.624v-0.387
			C574.524,205.448,574.587,205.37,574.652,205.286z M581.256,172.117c0.357-0.062,0.729-0.124,1.1-0.185
			c-0.374,0.266-0.67,0.458-0.834,0.511C581.26,172.527,581.207,172.376,581.256,172.117z M602.539,169.624
			c0.343,0.113,0.661,0.217,0.95,0.311c-1.502,0.162-3.236,0.639-4.716,1.187c-2.24,0.808-3.909,1.735-3.819,1.452
			c0.297-0.944,0.972-1.673,1.727-2.22c0.436-0.025,0.872-0.054,1.311-0.073c0.239-0.009,0.019-0.184-0.482-0.446
			c0.179-0.096,0.358-0.188,0.531-0.268c1.184-0.554,2.095-0.724,1.485-0.815c-1.077-0.158-2.139-0.28-3.181-0.363
			c-0.898-0.069-1.757-0.114-2.686-0.134c-1.918-0.696-3.652-1.257-3.098-1.341c0.324-0.045,1.371,0.064,2.754,0.293
			c1.383,0.23,3.115,0.582,4.752,1.017c0.402,0.107,0.82,0.218,1.167,0.343l1.17,0.363L602.539,169.624z"/>
	</g>
	<g>
		<path class="st0" d="M563.547,395.488c-5.06,0-9.802,0-14.802,0c0,4.202,0,8.28,0,12.358c0,1.439-0.171,2.904,0.046,4.31
			c0.236,1.535,0.831,3.016,1.271,4.526c-3.466,0-7.316,0-11.572,0c2.169-1.673,2.129-3.781,2.121-5.947
			c-0.04-10.865-0.024-21.728-0.014-32.594c0.002-2.132,0.31-4.335-2.219-6.028c4.37,0,8.168,0,12.358,0
			c-2.596,2.003-1.968,4.665-1.983,7.167c-0.029,4.594-0.008,9.187-0.008,13.945c5.003,0,9.793,0,14.767,0
			c0-6.066,0.072-12.021-0.07-17.971c-0.025-1.001-0.974-1.98-1.553-3.076c3.698,0,7.467,0,11.573,0
			c-2.428,2.127-1.831,4.847-1.836,7.426c-0.021,10.361-0.006,20.722-0.011,31.083c-0.001,2.146-0.318,4.378,2.563,6.007
			c-4.704,0-8.617,0-12.99,0c2.3-1.571,2.409-3.581,2.38-5.722C563.499,405.872,563.547,400.771,563.547,395.488z"/>
		<path class="st0" d="M622.544,394.519c-0.226,9.938-6.452,18.715-15.341,21.4c-12.308,3.719-25.412-5.291-26.72-18.377
			c-0.712-7.129,0.849-13.598,5.891-18.92c5.519-5.825,12.343-8.004,20.107-5.928c8.16,2.18,13.051,7.867,15.215,15.877
			C622.214,390.491,622.273,392.534,622.544,394.519z M614.375,394.351c0-5.853-1.78-11.551-4.803-15.376
			c-4.921-6.226-11.716-6.185-16.53,0.102c-6.262,8.176-6.313,22.082-0.111,30.417c4.878,6.555,12.111,6.522,16.906-0.112
			C613.078,404.9,614.337,399.803,614.375,394.351z"/>
		<path class="st0" d="M337.478,393.481c3.741,0,7.547,0,11.905,0c-2.641,1.838-2.133,4.277-2.142,6.575
			c-0.019,5.29-0.006,10.579-0.006,16.131c-1.328-1.508-2.436-2.767-3.119-3.543c-3.364,1.39-6.188,3.115-9.236,3.718
			c-11.972,2.371-22.023-6.746-24.193-17.457c-2.94-14.512,7.338-26.894,22.222-26.853c2.796,0.007,5.654,0.205,8.361,0.838
			c1.545,0.362,3.109,1.546,4.187,2.775c1.436,1.636,1.524,3.741,0.155,5.593c-1.331,1.8-3.167,2.343-5.48,1.692
			c0.115-0.325,0.165-0.594,0.295-0.816c1.793-3.025,0.969-5.677-2.341-6.912c-4.643-1.733-8.848-0.422-12.63,2.357
			c-4.335,3.185-6.331,7.743-6.966,12.929c-0.948,7.74,0.993,14.693,6.054,20.694c2.382,2.824,5.301,4.571,9.14,3.284
			c3.522-1.182,4.992-4.065,5.243-7.49c0.246-3.362,0.244-6.755,0.089-10.123C338.965,395.79,338.078,394.745,337.478,393.481z"/>
		<path class="st0" d="M251.734,404.467c2.925,5.04,7.04,8.493,12.673,9.839c3.819,0.912,7.624,0.745,11.118-1.337
			c2.931-1.748,3.889-4.429,2.628-7.581c-1.352-3.378-3.879-5.46-7.466-6.251c-3.45-0.761-6.968-1.316-10.325-2.374
			c-4.416-1.39-7.447-4.371-8.414-9.035c-1.168-5.631,2.143-11.63,8.017-14.045c6.303-2.592,12.724-2.144,19.06,0.083
			c0.795,0.28,1.543,0.807,2.197,1.356c2.025,1.699,2.748,4.231,1.849,6.17c-0.938,2.024-2.936,2.755-5.44,2.263
			c0-1.975,0.519-4.042-0.123-5.651c-0.932-2.34-3.453-3.358-5.857-3.516c-2.69-0.177-5.494-0.067-8.116,0.51
			c-2.975,0.653-5.229,2.58-5.574,5.867c-0.35,3.34,1.16,5.987,4.035,7.519c1.86,0.99,4.075,1.356,6.16,1.883
			c2.309,0.584,4.702,0.87,6.969,1.574c5.916,1.837,9.524,6.243,9.596,11.438c0.079,5.667-3.562,10.643-9.45,12.582
			c-6.039,1.99-11.988,0.994-17.858-0.924c-0.343-0.112-0.682-0.235-1.019-0.367C251.085,412.394,250.149,410.433,251.734,404.467z"
			/>
		<path class="st0" d="M667.644,404.986c2.382,2.283,4.479,4.672,6.952,6.573c3.574,2.747,7.788,3.6,12.296,3.076
			c4.376-0.509,7.714-3.065,8.06-6.302c0.362-3.395-2.839-7.731-6.753-8.806c-2.777-0.762-5.652-1.156-8.465-1.793
			c-3.739-0.845-7.2-2.251-9.532-5.494c-4.418-6.144-2.117-14.63,5.235-18.164c6.689-3.216,13.613-2.64,20.412-0.041
			c0.78,0.299,1.49,0.9,2.1,1.496c1.819,1.776,2.283,4.3,1.212,6.09c-1.127,1.883-3.072,2.467-5.861,1.758
			c2.15-4.113,1.136-6.744-3.354-8.49c-3.304-1.284-6.668-1.089-9.998-0.1c-3.043,0.905-5.409,2.668-5.768,6.002
			c-0.369,3.42,1.237,6.24,4.289,7.576c2.791,1.221,5.983,1.5,8.931,2.408c2.801,0.862,5.806,1.555,8.213,3.105
			c6.57,4.229,7.223,12.685,1.745,18.249c-3.114,3.162-7.006,4.486-11.332,4.645c-5.742,0.212-11.166-1.108-16.339-3.575
			c-1.456-0.694-2.26-1.554-2.082-3.303C667.778,408.216,667.644,406.504,667.644,404.986z"/>
		<path class="st0" d="M432.907,404.515c3.215,4.939,7.364,8.435,13.071,9.801c3.667,0.879,7.336,0.71,10.746-1.139
			c3.315-1.798,4.35-4.801,2.803-8.223c-1.429-3.161-3.903-5.082-7.324-5.821c-3.454-0.747-6.982-1.286-10.325-2.38
			c-4.816-1.576-8.04-4.868-8.52-10.111c-0.511-5.553,2.224-9.518,6.826-12.299c3.672-2.221,7.808-2.548,11.959-2.264
			c2.432,0.167,4.878,0.62,7.23,1.261c1.336,0.364,2.64,1.202,3.704,2.121c1.954,1.69,2.424,4.174,1.421,6.039
			c-1.045,1.943-2.935,2.572-5.798,1.928c1.847-5.049,0.313-8.042-5.153-8.958c-2.621-0.44-5.475-0.178-8.113,0.33
			c-3.502,0.674-5.728,3.233-5.981,6.012c-0.293,3.24,1.602,6.555,4.864,7.941c1.703,0.722,3.6,1.007,5.423,1.428
			c2.11,0.489,4.269,0.791,6.348,1.384c6.757,1.927,10.59,6.858,10.191,12.95c-0.369,5.609-5.492,10.844-11.78,11.883
			c-7.273,1.202-14.071-0.381-20.478-3.807c-0.543-0.29-1.02-1.185-1.062-1.829C432.824,408.685,432.907,406.597,432.907,404.515z"
			/>
		<path class="st0" d="M219.871,402.789c0-8.977,0.058-17.957-0.068-26.933c-0.017-1.217-0.956-2.419-1.498-3.702
			c1.593,0,3.34,0,5.533,0c-2.504,2.013-2.002,4.591-2.004,7.04c-0.013,11.581-0.005,23.161-0.005,34.742c0,0.852,0,1.704,0,2.528
			c-1.702,0.83-2.369-0.24-3.089-1.237c-8.387-11.625-16.778-23.246-25.17-34.867c-0.459-0.636-0.924-1.267-1.885-1.826
			c0,0.655,0,1.31,0,1.966c-0.001,10.358-0.055,20.716,0.053,31.072c0.018,1.659,0.764,3.31,1.191,5.037c-1.311,0-3.156,0-5.361,0
			c2.21-1.552,2.085-3.637,2.081-5.729c-0.025-10.646-0.084-21.292,0.035-31.936c0.033-2.939-0.6-5.244-3.43-6.885
			c3.614,0,7.231-0.071,10.838,0.075c0.561,0.023,1.168,0.975,1.61,1.598c6.506,9.16,12.988,18.338,19.48,27.509
			c0.406,0.573,0.843,1.125,1.267,1.686C219.588,402.88,219.729,402.835,219.871,402.789z"/>
		<path class="st0" d="M394.407,372.016c2.737,0,4.95,0,7.163,0c7.375,0,14.751,0.057,22.126-0.044
			c1.673-0.022,2.328,0.501,2.462,2.101c0.129,1.531,0.461,3.044,0.544,4.7c-3.01-4.22-7.271-4.95-11.96-4.767
			c-3.23,0.125-6.468,0.025-9.837,0.025c0,6.539,0,12.819,0,19.309c4.628-0.122,9.522,1.425,12.734-4.337c0,3.801,0,6.855,0,10.689
			c-3.204-5.773-8.163-4.094-12.786-4.317c0,6.503,0,12.739,0,19.231c1.033,0.052,2.006,0.135,2.982,0.142
			c2.819,0.019,5.64-0.034,8.46,0.016c4.225,0.075,7.788-1.219,10.576-4.703c-0.321,1.935-0.573,3.887-1.018,5.792
			c-0.093,0.398-0.895,0.899-1.373,0.901c-9.824,0.052-19.649,0.04-30.278,0.04c2.903-1.822,2.586-4.188,2.585-6.468
			c-0.002-10.361-0.011-20.723,0.006-31.084C396.799,376.726,396.928,374.201,394.407,372.016z"/>
		<path class="st0" d="M708.527,372.135c9.701,0,19.918,0,30.23,0c0.373,2.21,0.73,4.318,1.029,6.089
			c-2.105-1.242-4.184-3.331-6.514-3.661c-4.751-0.674-9.637-0.426-14.469-0.458c-0.344-0.003-0.991,0.8-0.997,1.236
			c-0.069,5.536-0.074,11.074,0.005,16.609c0.006,0.482,0.693,1.349,1.098,1.367c2.159,0.104,4.433,0.386,6.46-0.159
			c1.879-0.505,3.495-1.974,5.178-2.988c0,2.621,0,5.687,0,9.371c-3.174-5.529-8.047-4.007-12.654-4.127c0,6.482,0,12.763,0,18.997
			c5.16,0,10.23,0.401,15.187-0.174c2.367-0.273,4.517-2.397,6.67-3.627c-0.272,1.665-0.615,3.764-0.984,6.018
			c-10.326,0-20.599,0-31.196,0c2.196-1.583,2.248-3.689,2.24-5.887c-0.039-10.786,0.045-21.573-0.073-32.358
			C709.717,376.353,708.973,374.329,708.527,372.135z"/>
		<path class="st0" d="M135.643,416.647c2.33-1.351,3.215-3.587,4.109-5.899c4.657-12.062,9.362-24.108,14.108-36.135
			c0.421-1.067,0.352-2.672,2.306-2.623c1.825,0.045,1.717,1.549,2.113,2.554c4.819,12.235,9.523,24.515,14.406,36.724
			c0.805,2.012,2.33,3.74,3.427,5.45c-3.717,0-7.941,0-11.581,0c-0.186-1.735-0.06-3.416-0.577-4.869
			c-1.971-5.529-2.048-5.5-7.833-5.5c-3.324,0-6.651,0.092-9.97-0.038c-1.662-0.066-2.52,0.486-2.959,2.065
			c-0.343,1.239-0.908,2.424-1.436,3.604c-0.719,1.601-1.141,3.141,0.929,4.668C140.009,416.647,137.826,416.647,135.643,416.647z
			 M144.885,404.155c5.481,0,10.676,0,16.157,0c-2.703-6.898-5.309-13.545-8.12-20.721
			C150.118,390.663,147.532,397.33,144.885,404.155z"/>
		<path class="st0" d="M654.95,372.076c1.607,0,3.393,0,5.697,0c-2.592,1.827-2.26,4.248-2.262,6.575
			c-0.005,8.27,0.042,16.539-0.018,24.808c-0.049,6.796-5.233,12.376-12.172,13.256c-6.717,0.852-13.046-3.403-14.701-10.016
			c-0.396-1.582-0.504-3.269-0.513-4.909c-0.05-8.27,0.038-16.539-0.075-24.808c-0.022-1.582-0.73-3.154-1.137-4.791
			c3.287,0,7.15,0,11.416,0c-2.137,1.543-2.115,3.509-2.104,5.545c0.046,8.486,0.012,16.97,0.024,25.456
			c0.006,5.091,3.656,8.955,8.489,9.028c4.835,0.072,8.785-3.658,8.85-8.729c0.119-9.058,0.097-18.121-0.029-27.18
			C656.394,374.947,655.499,373.595,654.95,372.076z"/>
		<path class="st0" d="M380.78,372.101c1.693,0,3.472,0,5.74,0c-2.298,1.712-2.176,3.841-2.166,5.996
			c0.037,8.411,0.074,16.825-0.005,25.236c-0.064,6.872-5.196,12.471-12.059,13.369c-6.772,0.886-13.072-3.259-14.827-9.863
			c-0.363-1.368-0.454-2.839-0.462-4.265c-0.041-8.123,0.052-16.25-0.069-24.372c-0.03-2.006-0.68-4.005-1.056-6.066
			c3.259,0,7.096,0,11.331,0c-2.156,1.57-2.28,3.59-2.272,5.698c0.027,8.269-0.034,16.537,0.028,24.805
			c0.043,5.758,3.721,9.642,8.889,9.582c4.403-0.053,8.365-3.592,8.426-7.957c0.132-9.489,0.099-18.982-0.019-28.47
			C382.243,374.585,381.319,373.389,380.78,372.101z"/>
		<path class="st0" d="M497.432,416.722c-3.324,0-7.133,0-11.394,0c2.698-2.203,2.036-5.006,2.042-7.64
			c0.028-10.927-0.025-21.855,0.05-32.783c0.012-1.773-0.465-2.532-2.292-2.286c-0.709,0.096-1.442,0.016-2.164,0.016
			c-5.758,0.001-7.508,0.732-11.508,5.007c0.412-2.518,0.763-4.665,1.13-6.911c0.787-0.043,1.42-0.106,2.054-0.106
			c11.199-0.005,22.397,0.032,33.595-0.044c1.66-0.011,2.339,0.497,2.479,2.112c0.143,1.636,0.5,3.254,0.66,4.247
			c-2.071-1.203-4.321-3.103-6.908-3.849c-2.683-0.774-5.692-0.432-8.804-0.589c-0.054,1.048-0.126,1.804-0.126,2.562
			c-0.007,11.789-0.048,23.58,0.046,35.37C496.305,413.408,497.008,414.982,497.432,416.722z"/>
		<path class="st0" d="M102.103,372.095c3.915,0,7.847,0,12.246,0c-2.499,1.699-1.838,3.507-0.97,5.436
			c2.212,4.921,4.337,9.88,6.505,14.82c0.279,0.634,0.602,1.248,1.106,2.283c1.927-4.279,3.685-8.173,5.437-12.072
			c0.825-1.836,1.576-3.709,2.471-5.51c0.893-1.797,1.218-3.418-1.287-4.888c3.136,0,5.743,0,8.675,0
			c-0.552,0.365-0.96,0.555-1.263,0.851c-1.21,1.18-2.81,2.191-3.504,3.629c-3.121,6.478-6.001,13.071-8.911,19.649
			c-0.334,0.755-0.439,1.662-0.448,2.501c-0.043,4.173-0.13,8.352,0.032,12.518c0.07,1.789,0.704,3.555,1.09,5.37
			c-3.267,0-7.105,0-10.403,0c0.374-1.947,0.814-3.872,1.108-5.82c1.67-11.093-2.308-20.875-7.175-30.453
			c-0.716-1.407-1.174-2.951-1.944-4.325C104.11,374.735,103.107,373.523,102.103,372.095z"/>
		<path class="st0" d="M243.319,372.167c-0.401,1.923-1.111,3.79-1.129,5.664c-0.105,11.135-0.112,22.273,0.008,33.409
			c0.019,1.789,0.836,3.57,1.293,5.39c-3.31,0-7.211,0-11.789,0c2.941-1.662,2.467-4.138,2.469-6.467
			c0.01-10.848,0.055-21.699-0.046-32.547c-0.016-1.795-0.704-3.584-1.096-5.449C236.241,372.167,240.009,372.167,243.319,372.167z"
			/>
	</g>
	<g>
		<polygon class="st0" points="243.81,440.747 237.275,451.84 230.634,440.747 228.074,440.747 228.074,457.488 231.04,457.488 
			231.04,446.541 236.54,455.573 237.927,455.573 243.429,446.397 243.451,457.488 246.392,457.488 246.368,440.747 		"/>
		<path class="st0" d="M281.233,440.747l-7.533,16.74h3.204l1.658-3.874h8.371l1.664,3.874h3.253l-7.556-16.74H281.233z
			 M279.606,451.174l3.135-7.326l3.146,7.326H279.606z"/>
		<path class="st0" d="M329.836,451.904c1.06-0.471,1.878-1.148,2.452-2.032c0.573-0.885,0.86-1.942,0.86-3.169
			c0-1.227-0.287-2.287-0.86-3.181c-0.574-0.892-1.392-1.577-2.452-2.055c-1.06-0.479-2.33-0.719-3.813-0.719h-6.888v16.74h3.109
			v-4.879h3.779c0.223,0,0.432-0.015,0.647-0.026l3.417,4.905h3.349l-3.849-5.492C329.669,451.964,329.757,451.939,329.836,451.904z
			 M328.975,444.239c0.693,0.574,1.04,1.396,1.04,2.463c0,1.052-0.347,1.873-1.04,2.463c-0.694,0.591-1.726,0.885-3.096,0.885
			h-3.635v-6.672h3.635C327.249,443.378,328.281,443.665,328.975,444.239z"/>
		<path class="st0" d="M372.474,451.904c1.059-0.471,1.877-1.148,2.45-2.032c0.574-0.885,0.861-1.942,0.861-3.169
			c0-1.227-0.287-2.287-0.861-3.181c-0.573-0.892-1.391-1.577-2.45-2.055c-1.061-0.479-2.332-0.719-3.815-0.719h-6.887v16.74h3.109
			v-4.879h3.778c0.224,0,0.434-0.015,0.648-0.026l3.418,4.905h3.347l-3.848-5.492C372.306,451.964,372.395,451.939,372.474,451.904z
			 M371.611,444.239c0.694,0.574,1.041,1.396,1.041,2.463c0,1.052-0.347,1.873-1.041,2.463c-0.692,0.591-1.725,0.885-3.096,0.885
			h-3.634v-6.672h3.634C369.886,443.378,370.919,443.665,371.611,444.239z"/>
		<path class="st0" d="M409.574,440.747l-7.533,16.74h3.204l1.657-3.874h8.373l1.664,3.874h3.252l-7.556-16.74H409.574z
			 M407.947,451.174l3.134-7.325l3.146,7.325H407.947z"/>
		<polygon class="st0" points="462.349,440.747 458.86,440.747 450.584,449.338 450.584,440.747 447.477,440.747 447.477,457.488 
			450.584,457.488 450.584,453.199 453.251,450.471 459.146,457.488 462.78,457.488 455.31,448.227 		"/>
		<polygon class="st0" points="493.173,450.265 501.257,450.265 501.257,447.706 493.173,447.706 493.173,443.355 502.284,443.355 
			502.284,440.747 490.065,440.747 490.065,457.488 502.619,457.488 502.619,454.881 493.173,454.881 		"/>
		<path class="st0" d="M534.866,444.885c0.534-0.526,1.164-0.933,1.889-1.22c0.726-0.287,1.526-0.43,2.404-0.43
			c0.876,0,1.689,0.164,2.439,0.49c0.748,0.327,1.426,0.817,2.032,1.471l2.009-1.889c-0.781-0.925-1.738-1.623-2.869-2.092
			c-1.133-0.47-2.383-0.706-3.754-0.706c-1.291,0-2.479,0.213-3.563,0.634c-1.085,0.422-2.032,1.02-2.847,1.793
			c-0.812,0.773-1.442,1.685-1.888,2.737c-0.447,1.052-0.67,2.201-0.67,3.443c0,1.244,0.223,2.391,0.67,3.443
			c0.446,1.053,1.071,1.965,1.876,2.738c0.806,0.773,1.754,1.371,2.846,1.793c1.091,0.422,2.275,0.633,3.551,0.633
			c1.387,0,2.646-0.238,3.779-0.717c1.131-0.479,2.088-1.172,2.869-2.081l-2.009-1.913c-0.606,0.671-1.284,1.168-2.032,1.495
			c-0.75,0.328-1.564,0.491-2.439,0.491c-0.878,0-1.678-0.144-2.404-0.43c-0.725-0.287-1.355-0.694-1.889-1.22
			c-0.535-0.526-0.949-1.148-1.243-1.865c-0.295-0.717-0.442-1.506-0.442-2.368c0-0.86,0.147-1.649,0.442-2.367
			C533.917,446.032,534.331,445.411,534.866,444.885z"/>
		<polygon class="st0" points="585.55,440.747 585.55,447.659 576.893,447.659 576.893,440.747 573.785,440.747 573.785,457.488 
			576.893,457.488 576.893,450.313 585.55,450.313 585.55,457.488 588.658,457.488 588.658,440.747 		"/>
	</g>
</g>
</svg>
