<?xml version="1.0" encoding="iso-8859-1"?>
<!-- Uploaded to: SVG Repo, www.svgrepo.com, Generator: SVG Repo Mixer Tools -->
<svg fill="#000000" height="800px" width="800px" version="1.1" id="Layer_1" xmlns="http://www.w3.org/2000/svg" xmlns:xlink="http://www.w3.org/1999/xlink" 
	 viewBox="0 0 392.591 392.591" xml:space="preserve">
<g>
	<g>
		<path d="M283.475,43.295c-36.137,0-65.551,29.285-65.551,65.293c0,36.008,29.414,65.293,65.551,65.293
			s65.552-29.285,65.552-65.293C349.091,72.58,319.677,43.295,283.475,43.295z M283.475,152.03
			c-24.113,0-43.766-19.459-43.766-43.442c0-23.984,19.653-43.442,43.766-43.442s43.766,19.459,43.766,43.442
			S307.653,152.03,283.475,152.03z"/>
	</g>
</g>
<g>
	<g>
		<path d="M391.887,96.305c-5.624-50.747-46.804-91.087-98.069-95.806c-20.105-1.875-39.822,1.681-57.729,10.279
			c-32.517,15.709-69.172,26.505-111.968,32.905l-47.127,7.111L14.998,25.776C3.232,22.608,0,32.24,0,35.925V181.25
			c1.358,13.059,13.705,10.667,14.998,10.15l61.867-25.018l54.885,8.275c36.267,5.495,68.848,15.063,97.228,28.38l-40.404,176.162
			c-0.776,3.232-0.129,13.382,10.667,13.382h73.438c5.107,0,9.503-3.491,10.667-8.469l39.951-174.481
			c15.838-6.206,30.19-15.903,41.697-28.832C385.81,157.525,395.378,127.529,391.887,96.305z M64.84,147.699l-42.99,17.39V52.022
			l42.99,17.39V147.699z M263.952,370.794h-51.006l36.461-159.095c15.903,5.236,33.228,6.723,49.972,4.331L263.952,370.794z
			 M348.703,166.252c-34.457,39.564-92.057,26.052-104.21,19.911c-31.677-15.838-68.461-26.958-109.446-33.164l-48.42-7.37V71.416
			l40.792-6.206c44.994-6.788,83.588-18.166,118.174-34.844c14.287-6.852,30.125-9.762,46.287-8.275
			c40.986,3.814,73.891,35.943,78.352,76.477C372.945,123.65,365.123,147.376,348.703,166.252z"/>
	</g>
</g>
<g>
	<g>
		<path d="M192.259,220.555c-5.883-1.487-11.766,2.133-13.123,8.016l-12.541,51.265c-1.422,5.883,2.133,11.895,8.016,13.123
			c5.818,1.228,11.96-3.038,13.123-8.016l12.541-51.2C201.632,227.925,198.077,221.978,192.259,220.555z"/>
	</g>
</g>
</svg>